<?xml version="1.0" standalone="no"?>
<!DOCTYPE svg PUBLIC "-//W3C//DTD SVG 20010904//EN"
 "http://www.w3.org/TR/2001/REC-SVG-20010904/DTD/svg10.dtd">
<svg version="1.0" xmlns="http://www.w3.org/2000/svg"
 width="890.000000pt" height="1590.000000pt" viewBox="0 0 890.000000 1590.000000"
 preserveAspectRatio="xMidYMid meet">

<g transform="translate(0.000000,1590.000000) scale(0.100000,-0.100000)"
fill="#000000" stroke="none">
<path d="M2466 15873 c37 -152 166 -447 264 -603 163 -261 379 -463 575 -537
39 -14 71 -27 72 -28 2 -1 -6 -19 -18 -41 -20 -39 -23 -117 -6 -154 5 -11 -10
-24 -60 -50 -86 -44 -301 -179 -373 -233 -261 -198 -384 -313 -543 -507 -170
-209 -161 -206 22 6 108 125 195 210 332 327 221 187 574 409 778 489 72 28
295 90 374 103 116 21 165 14 194 -27 12 -17 20 -35 17 -39 -3 -5 -25 -6 -49
-2 -53 7 -155 -31 -155 -58 0 -9 -9 -24 -19 -33 -15 -14 -24 -15 -39 -7 -17 9
-32 2 -94 -42 -226 -163 -474 -385 -636 -571 -48 -55 -111 -126 -140 -159 -52
-59 -138 -179 -179 -247 -11 -19 -63 -102 -115 -185 -242 -384 -440 -811 -541
-1170 -47 -167 -51 -182 -37 -169 6 6 22 53 36 105 136 512 497 1211 855 1659
164 205 534 525 854 737 28 18 55 37 60 41 20 15 93 32 140 32 l47 0 -7 -37
c-4 -21 -29 -87 -57 -148 -85 -184 -170 -468 -214 -710 -18 -103 -31 -527 -17
-614 5 -37 8 24 8 190 0 246 3 279 47 514 20 107 99 389 119 428 19 35 21 9 5
-70 -64 -310 -73 -839 -21 -1133 16 -90 19 -45 4 55 -14 95 -13 670 1 808 21
196 59 450 74 500 18 60 103 197 122 197 20 0 82 -89 90 -130 4 -19 25 -75 46
-125 100 -227 227 -608 283 -853 114 -499 155 -796 155 -1125 -1 -213 -22
-545 -38 -573 -6 -10 -11 72 -15 227 -4 134 -14 300 -22 369 -9 69 -19 161
-24 205 -5 44 -21 154 -35 245 -15 91 -33 210 -42 265 -41 268 -136 681 -207
897 -40 121 -105 273 -114 265 -1 -2 15 -45 37 -97 87 -202 169 -521 240 -925
34 -192 34 -219 6 -400 -25 -157 -47 -413 -55 -640 l-7 -220 25 -25 24 -25
-16 27 c-15 25 -16 34 -3 100 8 40 31 127 51 193 19 66 43 153 53 193 9 39 20
72 23 72 3 0 14 -62 25 -137 15 -113 19 -197 19 -465 0 -179 3 -321 7 -315 3
7 12 41 18 77 7 36 19 87 27 113 8 27 16 65 17 85 2 20 8 98 14 172 6 74 13
186 16 249 3 63 9 118 14 123 5 5 60 16 123 25 63 9 115 20 117 24 6 16 28
-16 117 -171 101 -177 199 -335 229 -368 12 -13 16 -26 10 -30 -14 -13 -110
-32 -161 -32 -56 0 -53 16 7 41 25 10 38 18 30 18 -8 0 -35 -8 -59 -19 -24
-11 -51 -20 -62 -20 -10 0 -21 -4 -24 -10 -3 -5 -36 -26 -72 -47 -69 -38 -133
-88 -133 -104 0 -5 24 8 53 29 29 22 78 54 109 71 48 28 60 31 79 21 21 -12
19 -14 -39 -45 -33 -17 -77 -45 -99 -62 -21 -17 -53 -38 -70 -47 -18 -9 -33
-21 -33 -27 0 -6 8 -6 21 1 31 17 31 9 -2 -44 -31 -50 -30 -50 36 -6 36 25
129 70 143 70 3 0 -8 -15 -25 -32 -48 -51 -66 -96 -71 -178 l-5 -74 26 17 c15
9 33 17 42 17 25 0 57 -39 50 -60 -5 -15 -2 -18 8 -14 16 6 37 -41 37 -82 0
-27 42 -79 81 -99 67 -35 136 -5 164 72 26 68 33 74 79 63 22 -5 44 -6 49 -3
14 8 2 -133 -12 -151 -11 -14 -5 -46 9 -46 10 0 26 41 41 103 21 86 -10 277
-62 378 -20 40 -76 94 -108 104 -39 12 -21 25 27 19 119 -15 277 -98 336 -177
55 -74 58 -88 56 -287 0 -19 -19 -98 -42 -175 -43 -149 -56 -206 -39 -170 14
29 96 295 119 390 11 44 31 114 44 156 l23 76 25 -16 c23 -15 22 -13 -7 25
l-32 40 11 110 c14 145 3 519 -17 599 l-15 60 6 -85 c16 -232 20 -375 12 -480
-5 -63 -10 -116 -12 -117 -5 -6 -214 140 -269 188 -106 92 -256 251 -276 292
-12 24 -41 99 -66 167 -41 112 -48 149 -25 135 4 -2 25 -7 46 -11 126 -19 243
-60 309 -108 51 -38 62 -39 23 -3 -58 52 -155 96 -289 131 l-123 32 -29 72
c-16 40 -31 71 -33 69 -2 -2 5 -32 16 -68 11 -35 20 -66 20 -69 0 -9 -152 -2
-161 7 -17 17 -145 309 -221 503 -44 113 -83 209 -87 213 -5 5 -11 -28 -15
-73 -8 -90 -21 -97 -31 -17 -39 288 -226 911 -374 1246 -23 51 -40 99 -38 105
3 6 -8 34 -24 62 -15 29 -25 55 -22 58 15 15 567 -2 618 -19 16 -6 16 -3 -5
14 -20 17 -12 15 44 -10 38 -17 86 -41 107 -55 55 -34 61 -30 14 11 l-40 34
35 -10 c19 -5 51 -12 70 -15 76 -13 230 -56 325 -91 111 -41 190 -81 284 -143
34 -23 65 -39 69 -36 3 4 -3 13 -14 21 -10 8 -15 15 -11 15 22 0 242 -185 242
-204 1 -6 7 -10 14 -8 28 6 256 -256 381 -439 79 -115 239 -420 286 -543 21
-55 39 -95 41 -90 2 6 -17 59 -43 119 -25 61 -51 126 -59 145 -53 144 -222
418 -374 608 -85 105 -288 306 -377 374 l-55 41 28 17 c15 9 54 32 86 51 124
73 217 196 267 354 18 57 23 101 27 240 3 104 1 193 -6 230 -22 118 -88 228
-256 430 -121 145 -333 365 -352 365 -8 0 47 -67 123 -149 171 -183 216 -235
313 -364 134 -179 171 -294 137 -427 -40 -155 -223 -365 -420 -484 -75 -45
-86 -45 -47 -1 46 53 80 127 107 233 65 257 -1 606 -186 977 -78 156 -122 226
-134 214 -4 -3 10 -30 30 -60 124 -184 268 -585 293 -814 24 -220 -43 -462
-163 -589 -37 -40 -82 -47 -126 -20 -17 10 -18 13 -5 8 61 -21 61 -10 1 21
-37 20 -74 34 -81 31 -7 -2 -20 1 -29 7 -14 10 -15 20 -6 68 27 147 -87 257
-197 190 l-31 -20 -6 22 c-3 12 -6 38 -6 57 0 19 -9 72 -20 116 -14 59 -18
100 -13 150 10 129 -33 435 -88 612 -34 112 -83 222 -98 222 -15 0 -14 -5 9
-50 34 -67 140 -463 128 -476 -3 -2 -13 17 -23 43 -26 71 -111 229 -163 303
-73 104 -136 180 -149 180 -20 0 -15 -12 21 -50 54 -56 159 -216 215 -325 65
-130 98 -230 113 -349 15 -123 5 -138 -44 -63 -224 337 -790 417 -1141 160
-27 -20 -52 -32 -56 -27 -5 5 -19 41 -32 79 -21 62 -24 88 -24 225 1 126 5
172 23 243 26 104 26 107 8 107 -40 0 -82 -363 -57 -494 6 -33 9 -61 7 -63 -2
-2 -15 26 -30 62 -34 84 -54 206 -63 367 -3 74 -10 128 -16 128 -7 0 -8 -55
-4 -157 9 -230 51 -380 136 -487 l31 -39 -36 -39 c-55 -61 -108 -149 -144
-237 -18 -45 -36 -81 -41 -81 -4 0 -44 35 -87 78 -188 183 -312 468 -368 847
-15 105 -20 124 -27 114 -7 -8 23 -214 44 -309 30 -133 62 -226 126 -365 31
-66 61 -131 67 -145 6 -14 64 -79 129 -144 139 -142 144 -157 54 -168 -32 -4
-71 -16 -86 -28 l-29 -20 -89 39 c-49 22 -115 55 -146 75 -124 80 -289 262
-405 449 -95 151 -225 439 -261 575 -13 46 -36 60 -25 15z m2104 -498 c82 -19
205 -71 248 -106 30 -24 22 -23 -58 7 -25 9 -90 22 -145 29 -133 16 -253 4
-368 -37 -77 -27 -92 -36 -112 -69 -29 -45 -69 -76 -153 -118 -67 -34 -108
-80 -144 -161 -11 -25 -23 -52 -28 -61 -5 -9 -12 -48 -16 -87 -3 -40 -10 -69
-15 -66 -13 8 -11 72 2 76 8 3 9 21 4 57 -5 38 -10 49 -16 40 -7 -9 -8 0 -4
26 4 31 3 36 -5 20 -9 -18 -10 -17 -7 8 3 15 2 27 0 27 -9 0 -53 -112 -53
-135 0 -14 -4 -25 -10 -25 -11 0 -13 -71 -4 -119 6 -27 9 -30 33 -24 14 3 28
10 29 15 2 4 13 8 25 8 22 -1 22 -1 3 -15 -11 -8 -26 -15 -33 -15 -8 0 -33 -9
-56 -19 -24 -11 -55 -23 -70 -26 -27 -7 -27 -6 -28 41 -3 176 17 266 84 387
86 152 263 291 425 332 148 38 333 42 472 10z m-349 -165 c10 -6 19 -16 19
-23 0 -19 -58 -59 -78 -55 -28 5 -26 43 4 67 31 24 30 24 55 11z m739 -82 c0
-5 -7 -3 -15 6 -8 8 -15 18 -15 22 0 3 7 1 15 -6 8 -7 15 -17 15 -22z m-380
-34 c0 -19 -28 -30 -42 -16 -8 8 -8 15 1 26 14 17 41 10 41 -10z m405 -4 c10
-11 14 -20 9 -20 -5 0 -15 9 -22 20 -7 11 -11 20 -9 20 2 0 12 -9 22 -20z
m-105 -25 c0 -8 -9 -15 -20 -15 -11 0 -20 7 -20 15 0 8 9 15 20 15 11 0 20 -7
20 -15z m160 -51 c0 -8 -4 -14 -10 -14 -5 0 -10 4 -10 9 0 5 -3 18 -7 28 -6
16 -5 16 10 4 9 -7 17 -20 17 -27z m-810 -9 c0 -8 -7 -15 -15 -15 -8 0 -15 7
-15 15 0 8 7 15 15 15 8 0 15 -7 15 -15z m-80 -30 c0 -18 -5 -25 -20 -25 -15
0 -20 7 -20 25 0 18 5 25 20 25 15 0 20 -7 20 -25z m130 0 c0 -8 -7 -15 -15
-15 -8 0 -15 7 -15 15 0 8 7 15 15 15 8 0 15 -7 15 -15z m795 -110 c16 -67 25
-248 14 -259 -3 -3 -23 1 -45 10 l-39 15 0 149 c0 144 6 180 25 150 8 -13 10
-13 10 1 0 8 -6 21 -12 27 -10 10 -10 15 2 22 16 10 16 12 45 -115z m-535 74
c0 -5 -7 -9 -15 -9 -15 0 -20 12 -9 23 8 8 24 -1 24 -14z m140 -9 c0 -5 -5
-10 -11 -10 -5 0 -7 5 -4 10 3 6 8 10 11 10 2 0 4 -4 4 -10z m1468 -92 c-10
-124 -36 -225 -82 -316 -40 -80 -80 -124 -51 -57 37 86 57 164 62 245 4 71 11
97 41 158 19 39 36 72 36 72 1 0 -2 -46 -6 -102z m-2369 -28 c0 -9 -4 -8 -9 5
-5 11 -9 27 -9 35 0 9 4 8 9 -5 5 -11 9 -27 9 -35z m541 29 c0 -5 -7 -9 -15
-9 -15 0 -20 12 -9 23 8 8 24 -1 24 -14z m-80 -14 c0 -8 -9 -15 -20 -15 -25 0
-26 17 -2 23 9 3 18 5 20 6 1 0 2 -6 2 -14z m190 -2 c0 -10 -52 -63 -62 -63
-17 0 -7 25 20 47 28 23 42 28 42 16z m-302 -20 c2 -8 -5 -13 -17 -13 -12 0
-21 6 -21 16 0 18 31 15 38 -3z m1918 -160 c-23 -109 -39 -131 -126 -176 -70
-35 -330 -104 -330 -88 0 4 28 21 63 38 117 58 266 181 366 302 32 40 36 42
39 23 2 -12 -4 -57 -12 -99z m-2499 99 c9 -6 12 -31 10 -81 l-3 -73 -69 -29
c-38 -16 -73 -33 -79 -39 -17 -17 -24 -12 -36 26 -24 70 13 153 83 184 45 21
74 24 94 12z m713 -2 c0 -5 -9 -10 -21 -10 -11 0 -17 5 -14 10 3 6 13 10 21
10 8 0 14 -4 14 -10z m1019 -15 c31 -16 61 -77 61 -124 0 -38 -19 -91 -33 -91
-7 0 -49 17 -95 37 -80 37 -83 39 -78 67 4 16 6 41 6 55 0 21 9 32 38 49 44
26 63 27 101 7z m-1209 -25 c0 -5 -7 -10 -15 -10 -8 0 -15 5 -15 10 0 6 7 10
15 10 8 0 15 -4 15 -10z m440 -11 c0 -7 10 -9 28 -5 19 5 23 4 11 -3 -15 -10
-135 1 -147 13 -3 3 20 6 51 6 35 0 57 -4 57 -11z m660 -169 c8 -5 11 -10 5
-10 -5 0 -17 5 -25 10 -8 5 -10 10 -5 10 6 0 17 -5 25 -10z m796 -98 c-14 -28
-40 -65 -58 -82 -33 -31 -108 -76 -108 -64 0 3 -7 -2 -16 -10 -8 -9 -25 -16
-37 -16 -32 0 -70 29 -62 47 4 12 2 13 -8 5 -10 -9 -22 -5 -51 16 l-39 27 49
8 c142 23 294 75 333 113 25 23 24 8 -3 -44z m-621 10 c-3 -3 -11 0 -18 7 -9
10 -8 11 6 5 10 -3 15 -9 12 -12z m105 -57 c0 -8 -2 -15 -4 -15 -2 0 -6 7 -10
15 -3 8 -1 15 4 15 6 0 10 -7 10 -15z m105 -54 c3 -5 0 -13 -6 -17 -8 -5 -9
-3 -4 6 6 10 4 12 -9 7 -10 -4 -15 -3 -11 3 8 13 22 13 30 1z m60 -49 c-5 -5
-45 22 -45 31 0 4 11 0 24 -10 13 -10 23 -19 21 -21z m71 -49 c-6 -6 -55 29
-56 40 0 5 14 -1 31 -13 16 -12 28 -24 25 -27z m-921 -1308 c54 -148 70 -185
156 -357 44 -87 79 -162 79 -168 0 -5 -19 -10 -43 -10 -24 0 -75 -8 -113 -19
-38 -10 -76 -20 -84 -22 -12 -3 -16 16 -22 111 -4 63 -15 175 -24 248 -9 74
-14 155 -11 180 12 94 20 143 22 140 2 -2 19 -48 40 -103z m-195 -242 c24
-169 27 -143 -38 -392 -23 -84 -46 -159 -52 -165 -9 -8 -11 -4 -7 19 3 17 9
84 12 150 10 183 51 553 60 543 2 -2 13 -71 25 -155z m583 -318 c11 -11 16
-12 19 -3 8 24 39 -41 92 -189 29 -81 72 -191 95 -243 55 -122 59 -135 38
-124 -30 17 -162 213 -270 401 -100 175 -99 169 -38 172 32 1 54 -4 64 -14z
m330 -523 c25 -19 21 -34 -10 -30 -23 2 -34 15 -60 63 -18 33 -33 63 -33 67 0
4 19 -14 43 -40 23 -26 50 -53 60 -60z m55 -56 c15 -8 36 -24 47 -36 l20 -22
-40 17 c-22 10 -55 22 -72 28 -18 6 -33 14 -33 19 0 13 48 9 78 -6z m329 -242
c11 -28 -3 -24 -38 12 l-34 36 33 -16 c18 -10 36 -24 39 -32z m-457 -158 c0
-3 -4 -8 -10 -11 -5 -3 -10 -1 -10 4 0 6 5 11 10 11 6 0 10 -2 10 -4z m-20
-55 c0 -12 -20 -25 -27 -18 -7 7 6 27 18 27 5 0 9 -4 9 -9z m-115 -66 c0 -29
-4 -40 -15 -40 -11 0 -16 13 -18 43 -3 38 -1 43 15 40 14 -2 18 -13 18 -43z
m105 -9 c0 -8 -7 -16 -15 -20 -15 -5 -21 14 -8 27 11 12 23 8 23 -7z m100 -6
c-12 -22 -30 -18 -30 6 0 8 9 14 20 14 18 0 19 -3 10 -20z"/>
<path d="M3790 14989 c0 -5 5 -7 10 -4 6 3 10 8 10 11 0 2 -4 4 -10 4 -5 0
-10 -5 -10 -11z"/>
<path d="M3792 14920 c0 -14 2 -19 5 -12 2 6 2 18 0 25 -3 6 -5 1 -5 -13z"/>
<path d="M3795 14870 c-3 -5 -1 -10 4 -10 6 0 11 5 11 10 0 6 -2 10 -4 10 -3
0 -8 -4 -11 -10z"/>
<path d="M5013 14870 c0 -25 2 -35 4 -22 2 12 2 32 0 45 -2 12 -4 2 -4 -23z"/>
<path d="M5030 14877 c0 -9 4 -17 8 -17 5 0 13 -17 20 -37 l11 -38 -6 35 c-6
41 -33 87 -33 57z"/>
<path d="M3428 14613 c6 -2 18 -2 25 0 6 3 1 5 -13 5 -14 0 -19 -2 -12 -5z"/>
<path d="M5650 14346 c0 -2 7 -7 16 -10 8 -3 12 -2 9 4 -6 10 -25 14 -25 6z"/>
<path d="M5690 14326 c0 -10 28 -13 41 -5 10 6 7 9 -13 9 -16 0 -28 -2 -28 -4z"/>
<path d="M5715 14300 c-3 -5 -1 -10 5 -10 6 0 8 -5 4 -11 -4 -8 0 -8 15 0 11
7 21 16 21 21 0 13 -37 13 -45 0z"/>
<path d="M3050 15555 c0 -5 5 -17 10 -25 5 -8 10 -10 10 -5 0 6 -5 17 -10 25
-5 8 -10 11 -10 5z"/>
<path d="M3086 15470 c8 -28 134 -254 159 -285 9 -11 5 0 -10 25 -14 25 -51
92 -82 150 -73 136 -76 141 -67 110z"/>
<path d="M5860 14066 c0 -2 7 -9 15 -16 13 -11 14 -10 9 4 -5 14 -24 23 -24
12z"/>
<path d="M5516 13715 c114 -150 195 -302 286 -535 154 -390 250 -756 273
-1035 9 -106 39 -308 71 -475 31 -168 30 -183 -58 -480 -42 -143 -159 -393
-175 -376 -3 3 2 26 11 53 22 70 41 160 66 313 11 74 25 154 31 177 23 105 1
93 -31 -17 -65 -220 -313 -748 -371 -790 -10 -7 -49 -83 -49 -95 0 -19 122
178 200 324 43 80 103 199 132 265 35 78 54 111 56 97 5 -30 -57 -340 -74
-373 -8 -15 -14 -30 -14 -34 0 -11 59 66 92 119 17 26 32 46 34 44 3 -2 -3
-35 -11 -73 -9 -38 -36 -157 -60 -264 -76 -336 -101 -406 -186 -532 -140 -208
-466 -534 -719 -719 -160 -117 -218 -158 -287 -204 l-71 -47 -99 33 c-313 103
-523 188 -748 301 -228 114 -293 158 -388 257 -80 84 -226 275 -279 364 -17
29 -45 75 -62 102 -80 124 -97 158 -79 150 23 -10 166 -55 173 -55 3 0 -20 15
-50 33 -67 38 -149 99 -150 110 0 4 12 7 28 7 50 0 242 58 242 73 0 2 -45 -8
-99 -24 -131 -37 -183 -44 -211 -29 -49 26 -27 -2 39 -51 39 -28 69 -54 67
-57 -8 -7 -103 45 -171 93 -78 55 -185 169 -242 257 -61 94 -146 276 -177 379
-30 98 -56 242 -56 308 0 25 -5 53 -10 61 -12 19 -12 -12 0 -130 5 -47 14
-164 20 -260 6 -96 17 -202 24 -235 12 -60 12 -60 10 58 -1 64 2 117 6 117 4
0 18 -24 30 -52 23 -53 23 -53 5 -133 -21 -96 -38 -294 -33 -385 3 -57 12 -83
65 -190 34 -69 85 -154 114 -190 46 -57 146 -153 204 -195 41 -30 -11 -15 -61
17 -106 69 -271 266 -295 353 -5 17 -16 40 -24 50 -14 18 -15 14 -9 -55 3 -41
12 -111 20 -155 7 -43 12 -81 10 -83 -5 -4 -84 134 -133 233 -76 151 -172 411
-234 630 -27 96 -42 120 -24 38 69 -320 203 -653 351 -872 31 -46 64 -108 74
-137 11 -30 33 -74 50 -100 34 -48 193 -186 273 -236 26 -16 47 -34 47 -40 0
-16 -302 -3 -379 17 -104 26 -202 82 -284 163 -46 44 -132 324 -161 524 -21
137 -21 635 -2 868 8 94 11 171 6 180 -8 13 -9 13 -13 0 -3 -8 -11 -96 -17
-195 -12 -161 -18 -242 -19 -254 -3 -17 -76 107 -127 214 -76 160 -95 213
-135 363 -29 112 -30 123 -24 252 3 74 10 173 16 220 20 177 19 167 8 140 -31
-75 -59 -348 -59 -575 0 -185 19 -362 54 -496 49 -186 59 -182 21 7 -22 105
-54 360 -55 428 0 39 18 0 44 -94 15 -52 51 -146 81 -209 50 -103 54 -117 45
-150 -5 -20 -11 -79 -14 -131 l-5 -95 17 125 17 125 37 -54 c45 -67 44 -83
-17 -266 -74 -220 -98 -261 -75 -128 22 128 24 170 7 170 -11 0 -13 -9 -10
-37 7 -49 -20 -175 -73 -348 -139 -450 -420 -1015 -717 -1442 -219 -314 -360
-491 -406 -509 -114 -43 -158 -40 -343 22 -133 45 -298 82 -298 66 0 -4 17
-11 38 -15 87 -15 211 -48 277 -75 38 -16 103 -38 144 -49 78 -22 149 -58 296
-150 93 -59 168 -100 150 -82 -19 18 -170 119 -242 161 -76 45 -116 79 -78 68
11 -4 52 -13 92 -22 307 -64 605 -331 686 -615 37 -130 44 -350 15 -470 -13
-52 -75 -180 -112 -229 -44 -59 -130 -145 -239 -238 -35 -30 -43 -33 -108 -33
-83 0 -83 14 -1 30 60 13 136 40 129 46 -8 9 -178 -29 -277 -61 -353 -114
-469 -150 -588 -181 -73 -19 -144 -34 -157 -34 -16 0 -25 -6 -25 -15 0 -8 7
-15 15 -15 8 0 15 -4 15 -9 0 -4 12 -6 27 -3 23 4 25 3 13 -10 -8 -8 -23 -13
-35 -11 -18 4 -20 0 -17 -41 2 -25 10 -47 17 -50 21 -8 54 5 57 23 3 12 5 10
10 -7 4 -15 0 -28 -12 -40 -37 -35 -90 -113 -90 -132 0 -25 5 -25 65 10 28 16
66 38 85 48 19 10 67 36 105 56 39 21 60 29 47 18 -15 -14 -18 -22 -10 -25 7
-3 4 -6 -6 -6 -20 -1 -20 -1 0 -15 11 -8 30 -12 45 -9 19 3 28 0 33 -12 4 -12
13 -15 31 -11 24 6 31 -1 26 -28 -1 -5 1 -16 5 -25 5 -13 8 -12 15 7 4 12 13
22 18 22 14 0 33 -38 26 -50 -7 -12 39 -24 66 -17 13 3 19 1 16 -6 -2 -7 -19
-11 -38 -9 -18 1 -31 1 -28 -2 9 -8 207 -76 223 -76 9 0 16 -4 16 -9 0 -10
-128 -121 -280 -243 -195 -156 -460 -387 -460 -400 0 -12 -9 -19 312 251 283
239 300 253 448 371 177 141 346 286 563 484 l97 89 121 -13 121 -13 -59 -54
c-32 -29 -123 -106 -202 -170 -174 -141 -233 -194 -226 -201 2 -3 -14 -28 -38
-56 -92 -110 -132 -177 -77 -130 14 11 16 10 15 -14 0 -24 7 -29 65 -50 196
-70 466 -132 598 -137 51 -2 106 -6 122 -10 22 -5 40 -1 65 14 19 11 35 19 35
16 0 -2 -11 -46 -25 -97 -14 -51 -25 -102 -25 -114 0 -23 -39 -65 -151 -165
-107 -95 -410 -342 -464 -379 -13 -8 -35 -24 -51 -35 -16 -10 -48 -35 -71 -55
-101 -86 -113 -95 -124 -92 -6 1 -8 -2 -5 -7 3 -5 -8 -14 -24 -21 -16 -7 -28
-15 -26 -19 2 -3 -13 -17 -35 -30 -21 -14 -35 -29 -32 -34 3 -6 1 -7 -4 -4 -6
4 -13 1 -16 -7 -5 -12 -61 -46 -76 -46 -3 0 9 12 27 26 18 14 29 30 26 36 -4
7 -2 8 5 4 6 -4 25 4 42 18 17 14 35 26 41 26 6 0 5 6 -2 15 -11 13 -10 14 5
9 14 -6 16 -4 10 6 -6 10 -4 12 7 7 10 -3 19 3 27 20 7 16 17 23 27 19 10 -4
13 -2 7 7 -21 34 -7 71 17 42 17 -20 27 -19 33 5 3 11 11 20 17 20 7 0 10 -7
5 -17 -5 -14 -4 -15 6 -6 10 10 9 15 -1 28 -14 17 -65 20 -75 5 -5 -8 -11 -8
-20 0 -15 12 -62 -5 -82 -30 -11 -13 -12 -13 -13 2 0 9 4 20 10 23 5 3 10 10
10 15 0 5 -12 -3 -27 -18 -16 -15 -24 -30 -20 -33 9 -6 -5 -18 -45 -39 -16 -7
-28 -19 -28 -27 0 -8 -11 -13 -27 -13 -21 0 -24 3 -13 10 8 5 12 11 10 14 -6
6 -70 -48 -70 -59 0 -4 7 -1 17 6 14 12 16 12 11 -1 -3 -8 -14 -15 -26 -15
-12 0 -53 -31 -99 -75 -43 -41 -96 -91 -119 -110 -22 -19 -44 -42 -49 -50 -10
-16 -6 -14 66 40 l33 24 -19 -26 c-11 -15 -25 -28 -32 -28 -7 0 -17 -9 -23
-21 -10 -19 -10 -20 9 -10 11 6 22 11 26 11 13 0 -8 -22 -29 -30 -17 -7 -17
-9 -3 -9 20 -1 21 -5 6 -32 -7 -14 -16 -18 -31 -13 -18 5 -20 3 -15 -16 4 -15
2 -20 -8 -16 -18 7 -27 -5 -14 -20 8 -9 5 -15 -9 -23 -11 -6 -22 -7 -26 -4 -3
3 -6 -1 -6 -10 0 -17 -28 -30 -51 -24 -8 2 -10 2 -6 -1 5 -2 1 -12 -9 -23 -9
-10 -14 -25 -10 -34 5 -14 11 -12 43 12 21 15 40 31 41 36 2 4 8 5 13 1 5 -3
-12 -21 -39 -41 -26 -20 -56 -44 -67 -54 -11 -9 -46 -40 -78 -68 -32 -29 -62
-49 -68 -46 -5 4 -8 2 -7 -3 4 -13 -67 -79 -93 -87 -11 -4 -17 -11 -14 -16 9
-13 -9 -11 -25 4 -12 10 -12 9 -2 -4 10 -13 9 -19 -5 -30 -11 -9 -14 -10 -9
-2 4 7 3 20 -2 29 -6 11 -9 2 -10 -32 -2 -44 -1 -46 15 -32 366 312 1176 973
1468 1198 88 68 180 139 205 159 48 39 51 43 -50 -84 -349 -438 -368 -463
-505 -654 -393 -548 -737 -1144 -950 -1645 -100 -237 -185 -480 -184 -529 0
-35 10 -13 63 138 82 236 147 394 246 606 81 173 263 516 327 617 18 29 33 54
33 56 0 9 124 209 227 366 139 210 388 556 411 570 10 5 14 10 9 10 -4 0 0 12
9 26 13 19 19 22 25 12 6 -9 9 -7 9 8 0 11 11 35 25 54 14 19 25 29 25 22 0
-15 39 -9 50 8 4 7 13 9 19 6 15 -10 14 -26 -3 -26 -8 0 -16 -6 -19 -14 -7
-18 22 -14 34 5 7 11 12 12 26 2 10 -6 17 -16 15 -22 -1 -6 7 -11 18 -11 11 0
20 5 20 10 0 6 -6 10 -13 10 -15 0 -40 47 -29 53 4 3 15 3 25 1 13 -2 23 8 33
32 14 34 29 44 36 23 5 -14 58 -21 58 -8 0 6 4 7 10 4 6 -3 7 1 4 9 -3 9 -10
13 -15 10 -5 -3 -9 0 -9 6 0 8 7 9 18 5 9 -4 23 -8 29 -8 16 0 6 -48 -14 -64
-8 -6 -14 -14 -14 -17 1 -3 -32 -48 -72 -99 -229 -288 -450 -609 -661 -960
-137 -227 -298 -530 -397 -747 -138 -302 -317 -782 -390 -1048 -109 -391 -169
-663 -168 -755 1 -60 1 -59 24 59 156 822 457 1637 863 2339 121 209 301 492
430 674 180 255 562 741 583 741 21 0 3 -49 -77 -212 -233 -468 -313 -673
-417 -1063 -124 -463 -180 -1005 -158 -1507 22 -486 107 -945 230 -1248 17
-41 31 -79 31 -84 0 -5 -19 -32 -43 -60 -136 -161 -396 -535 -475 -683 -28
-54 -31 -65 -21 -87 16 -35 30 -33 23 3 -4 18 2 43 16 72 59 114 387 589 408
589 4 0 8 -17 10 -37 6 -85 133 -416 219 -570 72 -128 83 -102 14 29 -94 178
-164 351 -210 517 l-21 75 39 50 c95 125 377 441 567 636 203 208 310 325 382
418 31 41 92 118 135 173 76 98 78 102 103 207 43 184 66 277 69 280 1 2 14
-16 28 -40 14 -24 53 -79 87 -123 182 -237 177 -229 189 -302 17 -95 53 -228
121 -443 66 -207 73 -235 131 -475 36 -152 42 -191 51 -372 12 -234 10 -253
-30 -253 -23 0 -33 8 -51 41 -18 31 -26 38 -32 28 -7 -12 -9 -11 -10 1 -1 8
-1 20 0 25 0 6 -13 18 -30 27 -16 10 -29 23 -28 30 3 27 -1 38 -16 38 -8 0
-15 -7 -15 -16 0 -12 -7 -10 -31 10 -32 27 -49 33 -49 16 0 -6 -47 -10 -120
-10 -73 0 -120 4 -120 10 0 6 -18 10 -40 10 -22 0 -40 -4 -40 -10 0 -6 -33
-10 -80 -10 -64 0 -80 -3 -80 -15 0 -11 -13 -15 -54 -15 -39 0 -55 -4 -60 -15
-3 -9 -21 -22 -40 -30 -19 -8 -37 -19 -41 -25 -3 -5 -15 -10 -26 -10 -13 0
-19 -7 -19 -21 0 -12 -8 -28 -17 -35 -10 -7 -18 -20 -18 -31 0 -11 -16 -26
-40 -39 -24 -12 -40 -27 -40 -38 0 -10 -10 -25 -23 -33 -21 -15 -22 -14 -22
11 0 14 -4 26 -10 26 -10 0 -15 -32 -12 -75 1 -23 -17 -75 -27 -75 -3 0 -5
-20 -3 -45 4 -43 3 -45 -22 -45 -26 0 -26 -1 -26 -70 l0 -70 1186 0 1187 0 -7
78 c-11 127 -27 1193 -33 2230 -5 947 1 1313 27 1542 23 202 40 609 45 1060 9
916 7 1281 -5 1406 -11 107 -11 124 4 152 9 17 36 98 59 181 29 98 53 162 71
186 l27 35 89 0 c83 0 90 -2 109 -26 49 -62 51 -168 7 -499 -59 -453 -88 -824
-116 -1475 -13 -323 -14 -1617 -1 -1740 19 -183 23 -428 12 -715 -7 -159 -13
-483 -14 -720 -2 -373 0 -441 15 -515 10 -50 22 -181 28 -320 6 -129 15 -296
20 -370 19 -290 32 -466 36 -478 3 -9 276 -12 1322 -12 l1319 0 70 138 c61
119 94 195 117 265 8 24 15 20 182 -115 196 -158 250 -206 280 -250 25 -35 54
-51 54 -29 0 38 -313 305 -530 454 -58 39 -127 92 -154 117 -43 40 -262 324
-374 485 l-42 60 30 74 c132 324 242 769 282 1141 19 180 16 662 -5 865 -48
463 -98 722 -233 1217 l-26 98 30 47 c34 54 96 180 106 215 4 19 25 -12 115
-169 91 -158 276 -475 363 -621 16 -27 23 -30 34 -21 13 10 12 15 -4 33 -23
26 -121 196 -144 251 -9 22 -17 36 -17 30 -1 -5 -17 16 -36 48 -19 32 -32 63
-29 69 4 6 2 8 -4 4 -6 -3 -13 -2 -16 3 -9 14 21 21 32 8 5 -7 13 -23 17 -36
12 -40 115 -198 115 -177 0 3 -19 41 -43 83 -23 43 -60 114 -81 158 -45 93
-55 107 -67 99 -5 -3 0 -13 11 -22 21 -18 38 -92 20 -92 -10 0 -41 45 -81 120
-13 25 -27 47 -30 50 -3 3 -28 43 -54 90 -26 47 -57 98 -67 113 -18 26 -19 33
-7 80 9 33 14 116 14 222 l0 171 84 -156 c222 -413 563 -1091 796 -1585 77
-165 125 -268 125 -271 0 -6 81 -185 161 -356 68 -144 199 -454 199 -467 -1
-13 -34 39 -71 112 -22 42 -93 173 -158 290 -65 116 -131 235 -146 262 -48 86
-173 300 -322 552 -79 133 -143 246 -143 252 0 13 -10 14 -27 3 -8 -5 30 -76
119 -222 175 -291 478 -822 623 -1095 32 -60 97 -180 145 -265 121 -219 126
-231 185 -465 l54 -210 0 108 c-1 60 -4 106 -7 103 -3 -4 -12 8 -19 25 -19 45
-15 61 4 19 l17 -35 4 31 c2 24 -12 59 -58 143 -34 62 -77 149 -94 194 -18 45
-37 91 -41 102 -4 11 -9 25 -11 30 -14 44 -158 386 -228 540 -48 105 -106 231
-128 280 -222 489 -799 1648 -1018 2045 -54 98 -90 198 -90 250 0 26 74 126
190 258 111 126 128 142 157 142 50 0 460 -109 523 -140 91 -43 109 -54 125
-76 22 -29 18 -14 -23 114 -22 64 -58 176 -81 247 -31 97 -70 182 -150 335
l-109 205 56 3 c31 2 65 0 77 -3 11 -3 61 -54 110 -112 50 -59 140 -163 200
-232 61 -69 124 -142 140 -162 153 -185 450 -519 453 -510 4 11 -45 76 -113
151 -34 37 -57 82 -33 63 15 -12 67 -28 116 -37 l32 -5 0 263 c0 202 -3 266
-12 270 -10 5 -10 7 0 12 8 4 12 36 12 108 l0 103 -72 45 c-40 25 -108 67
-151 93 -107 65 -128 89 -186 208 -89 184 -125 326 -124 497 1 123 15 195 60
308 53 134 181 312 302 422 102 92 105 94 142 81 46 -16 33 1 -21 29 -57 29
-324 229 -421 316 -93 83 -337 336 -404 419 -68 83 -90 106 -50 50 56 -78 145
-181 235 -274 50 -51 89 -96 86 -98 -3 -3 -33 15 -68 40 -35 24 -82 54 -105
66 -130 65 -470 381 -608 564 -105 140 -186 364 -344 947 -27 102 -54 196 -60
210 -23 53 2 -60 85 -387 46 -182 84 -334 84 -337 0 -14 -19 -4 -24 12 -3 9
-4 -30 -1 -88 3 -83 13 -142 48 -280 45 -176 76 -279 101 -335 49 -110 56
-128 52 -132 -3 -3 -20 6 -38 19 -18 14 -54 37 -81 52 -49 28 -147 116 -128
116 5 0 16 -8 23 -18 14 -21 105 -92 117 -92 4 0 -32 39 -79 88 -85 86 -154
174 -224 285 -38 59 -53 74 -36 35 6 -13 13 -31 16 -40 4 -10 10 -18 15 -18 5
0 6 -7 3 -15 -4 -8 -10 -12 -15 -9 -22 13 -6 -25 21 -51 16 -15 27 -31 25 -35
-2 -4 8 -6 23 -4 23 2 25 1 11 -9 -18 -14 -10 -25 31 -43 15 -7 26 -21 27 -34
2 -18 -1 -19 -13 -10 -8 7 -14 19 -14 27 0 8 -4 12 -9 9 -11 -7 -146 134 -208
219 -116 159 -279 456 -304 555 -23 90 -18 333 8 460 33 156 54 343 62 545 l6
180 31 -90 c18 -49 44 -137 59 -195 35 -137 47 -169 39 -110 -16 130 -113 439
-168 536 l-17 29 8 -35 c4 -19 8 -150 7 -290 -1 -277 -15 -422 -59 -615 -28
-119 -28 -115 6 -420 20 -184 97 -430 198 -635 81 -164 137 -245 248 -361 l83
-86 -48 8 c-91 14 -129 29 -207 81 -148 99 -310 305 -436 551 -33 65 -63 116
-66 114 -7 -8 76 -264 103 -317 22 -44 114 -143 114 -123 0 5 -12 20 -26 34
-29 27 -109 158 -101 166 3 2 24 -26 46 -64 23 -37 57 -87 77 -109 l34 -41
-30 -13 c-44 -18 -37 -32 13 -25 47 6 49 5 95 -48 26 -31 32 -46 30 -77 -1
-22 0 -41 3 -43 18 -15 115 -69 144 -81 47 -20 196 -40 252 -33 24 2 45 1 48
-3 6 -9 -80 -20 -160 -20 -76 0 -191 38 -259 83 -23 17 -30 17 -37 6 -5 -8 -9
-22 -9 -32 0 -64 -131 -504 -189 -640 -12 -27 -21 -51 -21 -53 0 -11 37 -2 37
9 1 12 26 81 91 252 17 44 35 96 41 115 8 28 10 29 7 7 -2 -16 3 -35 11 -43
13 -12 11 -14 -9 -15 -20 -1 -21 -2 -3 -6 11 -3 27 -10 35 -17 13 -10 13 -9 1
7 -15 19 -9 22 20 7 10 -6 19 -18 19 -26 0 -13 8 -15 35 -12 19 2 35 1 35 -2
0 -14 -61 -184 -108 -302 -63 -157 -131 -290 -180 -353 l-23 -30 5 27 c5 23
-4 40 -24 44 -3 0 -26 4 -52 8 -44 8 -46 9 -38 34 4 15 31 75 58 134 31 64 47
110 41 114 -14 8 -9 15 -77 -126 -72 -147 -121 -226 -210 -334 -36 -44 -68
-93 -72 -110 -5 -27 -10 -31 -36 -29 -16 1 -90 6 -164 11 -223 16 -738 -15
-886 -53 -84 -22 -108 -11 -139 60 -42 94 -124 169 -208 189 -80 19 -194 -55
-248 -159 -34 -68 -73 -77 -198 -46 -300 73 -555 48 -847 -85 -13 -6 -28 53
-40 145 -8 65 -17 74 -149 156 -238 146 -432 373 -590 688 -55 109 -72 157
-100 273 -31 131 -65 302 -65 332 0 28 244 4 544 -54 132 -25 269 -58 286 -69
6 -3 10 -39 10 -79 0 -77 14 -136 33 -136 7 0 20 14 30 32 10 18 21 27 26 22
5 -5 30 -52 56 -104 27 -52 64 -123 83 -156 33 -59 37 -62 93 -78 83 -23 109
-21 135 11 l21 27 34 -40 c145 -171 282 -247 406 -225 32 6 84 13 116 16 44 5
60 11 68 27 11 20 16 21 173 15 88 -4 208 -10 266 -13 95 -6 110 -5 147 15 55
27 59 27 72 -9 5 -17 15 -30 21 -30 46 0 161 80 264 185 39 39 83 79 99 88 15
9 38 24 51 33 24 15 25 15 45 -30 23 -53 36 -53 78 2 15 21 49 61 75 89 26 29
59 72 74 95 22 35 28 39 36 25 23 -42 44 -3 62 116 l12 79 134 52 c74 29 149
59 165 68 37 19 188 63 273 79 34 6 62 16 62 20 0 11 -31 11 -88 0 -38 -8 -46
-5 -78 20 -49 38 -87 82 -139 160 l-44 65 17 37 c15 33 23 38 50 36 4 0 10 10
14 23 l6 23 1 -22 c1 -27 18 -31 24 -5 3 9 5 0 6 -20 0 -21 6 -38 11 -38 6 0
10 32 10 76 0 55 3 75 12 72 7 -3 16 -19 21 -37 16 -63 18 -23 3 63 -16 93
-22 110 -37 101 -5 -4 -9 -2 -9 3 0 5 10 12 21 15 16 4 20 11 14 24 -15 39
-17 84 -5 150 11 64 10 69 -9 82 -27 18 -26 29 3 41 19 7 25 18 29 52 2 24 12
97 22 163 11 78 15 156 13 223 -3 56 -2 99 2 95 18 -20 82 -290 83 -354 1 -41
6 -68 12 -66 9 3 15 30 31 152 l7 50 13 -48 c7 -27 15 -51 18 -55 10 -9 7 41
-5 78 -6 19 -16 66 -23 104 -18 105 -36 97 -37 -16 -1 -99 -5 -96 -32 24 -28
119 -89 318 -97 313 -4 -3 -5 -24 -3 -47 10 -89 -58 -383 -102 -442 -22 -30
-27 -13 -11 35 26 77 64 349 70 494 4 117 -7 364 -13 285 -1 -14 -6 -76 -10
-138 -5 -62 -14 -119 -20 -125 -8 -8 -11 48 -12 219 -1 512 -3 531 -84 924
-27 132 -67 343 -90 477 -8 51 -24 121 -34 155 -11 35 -34 117 -51 183 -108
412 -343 934 -476 1055 l-38 35 30 -40z m689 -2450 c24 -188 34 -308 35 -407
l0 -86 -33 -21 c-40 -24 -85 -71 -69 -71 7 0 33 19 57 41 25 23 47 40 49 38 2
-2 1 -22 -3 -45 -8 -45 -54 -93 -158 -167 -32 -22 -76 -56 -99 -74 -23 -18
-43 -33 -46 -33 -2 0 2 28 9 63 8 34 17 72 19 85 5 26 51 57 109 74 32 9 35
13 18 16 -12 2 -43 -6 -69 -17 -26 -12 -47 -21 -49 -21 -1 0 4 28 11 63 7 34
17 103 23 154 5 51 15 103 22 115 17 31 89 208 96 233 15 60 57 195 59 192 2
-2 11 -61 19 -132z m-3645 -565 c17 -33 30 -73 30 -89 0 -84 59 -417 90 -505
11 -33 18 -61 16 -63 -6 -6 -84 120 -115 187 -39 84 -81 229 -88 303 -7 65 15
239 29 231 4 -3 22 -32 38 -64z m3642 -110 c-12 -11 -25 -20 -29 -20 -9 1 36
40 45 40 3 0 -4 -9 -16 -20z m-3531 -60 c53 -69 128 -139 200 -185 45 -29 82
-65 117 -111 29 -38 52 -72 52 -76 0 -5 -15 -8 -34 -8 -41 0 -66 -8 -66 -22 0
-6 19 -7 49 -3 45 6 50 5 70 -22 32 -41 100 -147 97 -151 -2 -1 -43 11 -93 27
-120 39 -269 111 -330 160 -49 38 -50 41 -66 122 -15 79 -47 296 -47 321 0 14
3 11 51 -52z m3481 18 c-7 -7 -12 -8 -12 -2 0 14 12 26 19 19 2 -3 -1 -11 -7
-17z m-54 -83 c2 -31 0 -54 -5 -53 -17 5 -53 -24 -53 -43 0 -11 5 -17 10 -14
6 3 10 1 10 -5 0 -6 5 -8 10 -5 6 4 10 -5 10 -19 0 -22 -4 -26 -30 -26 -29 0
-30 -2 -30 -42 0 -31 -7 -51 -25 -72 -13 -16 -22 -33 -18 -39 3 -5 2 -7 -3 -4
-23 14 -38 -12 -36 -60 1 -26 -2 -61 -6 -77 -6 -23 -12 3 -26 112 -18 141 -18
142 3 210 18 60 27 74 67 105 26 20 51 34 57 30 5 -3 7 -1 4 4 -4 6 8 20 26
32 17 11 32 21 32 21 0 0 1 -25 3 -55z m-3599 -69 c20 -71 13 -87 -13 -32 -14
31 -23 117 -11 104 3 -3 14 -35 24 -72z m3648 -13 c-3 -10 -5 -2 -5 17 0 19 2
27 5 18 2 -10 2 -26 0 -35z m-39 -34 c-3 -18 -5 -17 -15 10 -6 17 -7 29 -2 25
5 -3 10 1 10 8 1 7 3 5 6 -4 2 -10 3 -27 1 -39z m68 -40 c-8 -18 -15 -27 -16
-19 0 8 -3 26 -5 40 -5 21 -4 22 4 5 8 -18 9 -17 17 10 5 17 10 23 11 14 2 -8
-3 -31 -11 -50z m-4241 -38 c3 -7 2 -19 -2 -25 -7 -10 -9 -65 -5 -138 1 -15
10 -35 21 -45 24 -24 34 -57 23 -80 -5 -10 -17 -43 -27 -73 -24 -76 -142 -316
-209 -427 -96 -159 -218 -326 -434 -596 -71 -89 -266 -298 -306 -329 -22 -17
-58 -47 -78 -67 -49 -46 -48 -32 1 27 80 95 291 417 409 623 91 158 229 438
327 664 48 110 109 246 135 302 27 56 54 119 60 142 12 47 35 64 62 48 10 -7
20 -18 23 -26z m4165 19 c0 -5 -5 -10 -11 -10 -5 0 -7 5 -4 10 3 6 8 10 11 10
2 0 4 -4 4 -10z m17 -32 c-3 -7 -5 -2 -5 12 0 14 2 19 5 13 2 -7 2 -19 0 -25z
m13 -43 c0 -18 -5 -25 -20 -25 -15 0 -20 7 -20 25 0 18 5 25 20 25 15 0 20 -7
20 -25z m-251 -96 c2 -113 70 -396 135 -562 14 -38 21 -65 15 -61 -21 13 -129
252 -170 376 -56 170 -58 191 -23 266 32 67 42 63 43 -19z m-3106 -42 c28 -19
33 -25 18 -24 -12 1 -21 5 -21 9 0 17 -30 7 -31 -9 0 -12 -5 -8 -14 12 -18 39
-19 61 -2 47 6 -5 29 -21 50 -35z m3021 -77 c3 -19 19 -75 36 -124 16 -49 28
-91 26 -94 -5 -5 -33 59 -42 95 -4 13 -10 23 -15 23 -5 0 -7 -6 -5 -12 13 -42
16 -69 6 -63 -5 3 -11 18 -11 33 -1 24 -3 23 -9 -8 -4 -19 -8 -29 -9 -22 0 7
-5 11 -10 7 -5 -3 -12 -1 -16 5 -10 17 -36 11 -34 -7 3 -34 -1 -43 -18 -43
-15 0 -16 -2 -3 -10 10 -6 11 -10 3 -10 -7 0 -13 -7 -13 -16 0 -13 -3 -14 -15
-4 -17 14 -36 5 -29 -14 3 -7 -2 -19 -11 -26 -14 -11 -20 -11 -37 -1 -11 7
-23 9 -26 5 -4 -4 -1 -9 6 -11 19 -7 14 -22 -15 -49 -23 -22 -25 -28 -15 -45
7 -11 10 -25 6 -31 -5 -8 -2 -9 9 -5 14 5 16 2 11 -21 -4 -15 -8 -28 -9 -30
-1 -1 -15 35 -29 82 -32 98 -32 97 48 183 63 67 169 193 193 229 19 29 20 29
27 -16z m-2959 12 c-3 -3 -11 0 -18 7 -9 10 -8 11 6 5 10 -3 15 -9 12 -12z
m-787 -21 c3 -19 0 -22 -13 -17 -9 3 -19 6 -21 6 -2 0 -4 9 -4 21 0 29 34 21
38 -10z m637 9 c3 -5 1 -10 -4 -10 -6 0 -11 5 -11 10 0 6 2 10 4 10 3 0 8 -4
11 -10z m255 -10 c8 -5 11 -10 5 -10 -5 0 -17 5 -25 10 -8 5 -10 10 -5 10 6 0
17 -5 25 -10z m65 -30 c13 -6 15 -9 5 -9 -8 0 -22 4 -30 9 -18 12 -2 12 25 0z
m95 -36 c0 -11 -5 -10 -20 3 -11 10 -20 18 -20 19 0 1 9 0 20 -3 11 -3 20 -12
20 -19z m54 -5 c-4 -7 -1 -10 7 -7 8 3 24 -7 36 -21 27 -31 31 -50 6 -25 -17
17 -18 16 -23 -17 -4 -28 -7 -31 -13 -14 -7 16 -10 17 -18 5 -6 -10 -9 1 -7
38 0 28 5 52 10 52 5 0 6 -5 2 -11z m-1124 -154 c39 -84 138 -241 191 -301 32
-37 59 -75 59 -84 0 -45 -73 -212 -137 -312 -73 -115 -300 -377 -409 -472
-116 -102 -121 -104 -188 -76 -31 12 -56 24 -56 27 0 2 14 25 31 50 18 25 47
80 64 122 18 42 45 103 60 136 37 82 145 363 145 378 -1 19 -50 -80 -90 -183
-88 -222 -220 -500 -238 -500 -4 0 -39 7 -77 15 -81 17 -219 20 -210 5 3 -5
36 -10 72 -10 138 0 335 -66 458 -154 122 -88 241 -228 323 -381 24 -44 40
-69 36 -55 -11 43 -84 172 -141 247 -64 85 -166 182 -240 226 -29 18 -52 34
-52 37 0 6 186 127 251 162 99 54 244 92 331 86 l48 -3 34 -100 c42 -120 90
-221 178 -376 81 -144 222 -366 250 -397 l21 -23 -36 -147 c-21 -81 -49 -196
-63 -257 -73 -319 -115 -509 -130 -590 -24 -128 -21 -124 -56 -82 -17 21 -43
43 -57 51 -34 16 -209 14 -271 -3 -23 -7 -49 -10 -57 -7 -20 8 -17 54 10 164
56 222 81 438 70 602 l-8 125 -7 -185 c-14 -356 -107 -731 -235 -950 -58 -100
-79 -104 -332 -71 -81 11 -192 25 -247 31 -113 12 -136 24 -78 39 56 15 84 40
140 124 95 142 173 358 194 535 20 170 -10 410 -54 433 -14 8 -16 13 -7 24 24
29 -106 231 -220 343 -121 120 -261 203 -407 243 -62 17 -86 20 -120 12 -27
-7 -43 -7 -43 -1 0 6 54 63 119 128 114 114 178 160 220 160 26 0 51 10 51 21
0 5 -19 6 -42 3 l-41 -7 85 89 c199 207 473 559 608 779 66 109 148 268 187
365 55 136 53 134 78 60 12 -36 28 -78 35 -95z m1067 83 c-2 -13 -4 -5 -4 17
-1 22 1 32 4 23 2 -10 2 -28 0 -40z m50 -50 c-3 -8 -6 -5 -6 6 -1 11 2 17 5
13 3 -3 4 -12 1 -19z m71 -3 c-3 -3 -9 2 -12 12 -6 14 -5 15 5 6 7 -7 10 -15
7 -18z m96 -58 c32 -38 55 -71 52 -74 -7 -7 -49 38 -76 81 l-19 29 -6 -26 c-4
-15 -11 -27 -16 -27 -13 0 -11 37 1 45 6 4 8 16 4 28 -3 12 -4 20 -2 17 3 -3
31 -36 62 -73z m2880 50 c8 -14 8 -20 -4 -27 -22 -14 -40 -12 -46 5 -16 41 27
60 50 22z m-3323 -82 c-1 -15 -24 -12 -29 3 -3 9 2 13 12 10 10 -1 17 -7 17
-13z m-76 -30 c0 -30 -39 -27 -43 3 -3 20 0 23 20 20 15 -2 23 -10 23 -23z
m3495 -10 c0 -19 -20 -29 -32 -17 -15 15 -2 43 17 36 8 -3 15 -12 15 -19z
m-2907 -20 c-3 -9 -8 -14 -10 -11 -3 3 -2 9 2 15 9 16 15 13 8 -4z m2096 -33
c1 -7 -4 -10 -9 -7 -6 4 -8 11 -5 16 4 5 1 9 -4 9 -6 0 -11 -5 -11 -10 0 -6
-8 -10 -17 -8 -11 2 -17 -2 -15 -10 1 -8 -2 -11 -9 -6 -8 5 -1 16 22 35 30 24
35 26 41 11 4 -9 7 -23 7 -30z m-2574 18 c3 -5 1 -10 -4 -10 -6 0 -11 5 -11
10 0 6 2 10 4 10 3 0 8 -4 11 -10z m2815 -25 c5 -14 16 -25 25 -25 8 0 15 -7
15 -15 0 -8 -9 -15 -20 -15 -13 0 -20 7 -20 20 0 13 -7 20 -20 20 -13 0 -20 7
-20 20 0 28 29 25 40 -5z m-3483 -60 c15 -25 47 -75 71 -112 23 -36 40 -68 38
-70 -9 -9 -156 195 -156 217 0 22 20 8 47 -35z m693 35 c0 -5 -4 -10 -10 -10
-5 0 -10 5 -10 10 0 6 5 10 10 10 6 0 10 -4 10 -10z m467 -22 c-3 -7 -5 -2 -5
12 0 14 2 19 5 13 2 -7 2 -19 0 -25z m60 2 c0 -16 -4 -30 -9 -30 -4 0 -7 14
-6 30 1 17 5 30 8 30 4 0 7 -13 7 -30z m2047 -29 c-6 -7 -11 2 -17 34 l-6 30
13 -30 c8 -16 12 -32 10 -34z m-109 39 c-3 -5 -16 -15 -28 -21 l-22 -12 20 21
c21 22 41 30 30 12z m-1900 -28 c-3 -3 -11 0 -18 7 -9 10 -8 11 6 5 10 -3 15
-9 12 -12z m1885 -16 c0 -2 -7 -6 -15 -10 -8 -3 -15 -1 -15 4 0 6 7 10 15 10
8 0 15 -2 15 -4z m209 -49 c1 -5 -3 -5 -9 -2 -5 3 -10 16 -9 28 0 21 1 21 9 2
5 -11 9 -24 9 -28z m-282 -69 c-1 -57 0 -163 3 -236 l4 -134 -84 -31 c-92 -35
-114 -57 -56 -57 20 0 36 -4 36 -9 0 -5 -33 -28 -72 -52 -40 -23 -80 -49 -89
-56 -14 -11 -36 -11 -138 3 l-121 17 20 22 c29 31 15 38 -110 59 -58 10 -140
26 -182 37 -72 18 -80 18 -118 3 -45 -18 -46 -20 -24 -68 9 -19 14 -40 11 -48
-6 -17 -92 -38 -158 -38 -28 0 -81 7 -118 16 -67 15 -69 16 -75 52 -3 20 -9
105 -12 187 -6 123 -4 152 7 162 11 9 37 3 119 -29 126 -48 269 -98 405 -139
98 -29 101 -30 140 -13 78 32 388 258 544 397 36 31 66 57 68 57 1 0 1 -46 0
-102z m217 87 c7 -19 -3 -19 -28 0 -19 15 -19 15 1 15 11 0 23 -7 27 -15z
m-3166 -63 c28 -53 121 -153 211 -228 46 -38 87 -68 90 -67 3 1 13 4 22 8 12
4 18 -1 23 -20 5 -21 9 -24 26 -15 21 11 35 -2 26 -25 -3 -9 9 -22 34 -36 59
-33 53 -53 -12 -45 -29 3 -109 9 -178 12 -72 4 -136 12 -151 20 -47 24 -122
36 -181 29 l-58 -7 0 -56 c0 -32 9 -99 19 -149 l18 -93 -31 -4 c-17 -3 -74
-11 -126 -19 -52 -8 -96 -13 -98 -12 -1 1 13 27 33 56 88 134 265 514 265 570
0 27 12 24 46 -12 55 -58 211 -179 231 -179 4 0 -29 35 -74 78 -71 68 -183
219 -183 247 0 14 28 -17 48 -53z m3394 41 c10 -9 18 -22 18 -30 0 -11 -8 -9
-30 7 -31 22 -39 40 -18 40 6 0 20 -7 30 -17z m-2112 -33 c8 -5 11 -10 5 -10
-5 0 -17 5 -25 10 -8 5 -10 10 -5 10 6 0 17 -5 25 -10z m2814 -96 c3 -8 2 -12
-4 -9 -6 3 -10 10 -10 16 0 14 7 11 14 -7z m414 -42 c22 -34 61 -70 87 -78 11
-4 67 -52 124 -108 57 -55 108 -106 115 -111 45 -40 128 -106 161 -128 l40
-27 -38 0 c-59 0 -245 48 -299 77 -33 18 -65 48 -97 92 -84 113 -172 295 -156
321 9 14 42 -5 63 -38z m-927 -2 c10 0 19 5 19 11 0 18 75 4 108 -20 16 -11
32 -18 36 -14 3 3 6 1 6 -6 0 -8 6 -11 16 -7 11 4 27 -6 48 -31 17 -21 64 -71
103 -112 40 -41 72 -75 70 -75 -1 -1 -33 -12 -72 -25 -38 -13 -105 -39 -148
-58 -43 -19 -83 -31 -90 -27 -20 13 -89 66 -150 118 -45 37 -57 54 -53 69 3
11 0 29 -6 40 -7 14 -7 17 1 13 10 -6 17 29 12 57 -1 5 3 6 9 2 5 -3 11 2 11
12 1 10 2 24 3 31 1 15 50 42 54 30 2 -4 12 -8 23 -8z m189 0 c0 -5 -2 -10 -4
-10 -3 0 -8 5 -11 10 -3 6 -1 10 4 10 6 0 11 -4 11 -10z m-2590 -25 c6 -8 9
-19 5 -24 -8 -13 -45 9 -45 26 0 18 25 16 40 -2z m4055 -149 c38 -45 101 -113
140 -153 39 -39 110 -115 157 -170 103 -118 246 -257 346 -337 40 -32 72 -60
70 -62 -2 -2 -31 7 -63 21 -70 28 -185 50 -219 41 -18 -4 -35 4 -72 37 -63 54
-71 64 -153 177 -98 135 -205 315 -273 458 -32 68 -58 126 -57 130 0 4 12 -8
27 -27 15 -19 58 -70 97 -115z m-525 109 c20 -24 6 -28 -15 -5 -10 11 -13 20
-8 20 6 0 16 -7 23 -15z m-1379 -27 c11 -21 11 -22 -4 -10 -13 11 -16 10 -20
-10 -3 -17 -5 -15 -6 10 -1 37 13 42 30 10z m-3003 -16 c3 -16 -2 -22 -17 -22
-24 0 -35 15 -27 36 9 23 40 13 44 -14z m3092 -84 c36 -33 101 -88 145 -120
44 -33 81 -63 82 -67 2 -3 -24 -16 -57 -28 l-60 -22 0 43 c0 61 -16 71 -82 56
-29 -7 -59 -18 -67 -23 -10 -9 -18 -6 -32 12 -11 13 -19 29 -19 37 0 8 -5 13
-12 12 -6 -2 -14 6 -16 16 -4 18 -3 19 13 3 21 -21 35 -22 35 -2 0 22 28 75
40 75 5 0 12 -9 15 -20 3 -11 12 -20 20 -20 8 0 3 11 -13 30 -15 17 -28 26
-30 20 -2 -5 -8 -10 -14 -10 -7 0 -6 5 1 14 10 11 7 19 -10 35 -13 12 -19 21
-13 21 5 0 38 -28 74 -62z m25 32 c10 -11 16 -20 13 -20 -3 0 -13 9 -23 20
-10 11 -16 20 -13 20 3 0 13 -9 23 -20z m-85 -10 c0 -5 -2 -10 -4 -10 -3 0 -8
5 -11 10 -3 6 -1 10 4 10 6 0 11 -4 11 -10z m1473 -43 c3 -8 1 -20 -5 -28 -8
-11 -9 -11 -5 2 3 9 0 22 -6 28 -8 8 -8 11 0 11 6 0 13 -6 16 -13z m-3903 -57
c0 -11 -6 -20 -14 -20 -18 0 -29 16 -21 30 11 18 35 11 35 -10z m2360 10 c0
-5 -7 -7 -15 -4 -8 4 -15 8 -15 10 0 2 7 4 15 4 8 0 15 -4 15 -10z m32 -99
l35 -40 66 24 c35 13 68 21 71 18 10 -11 5 -166 -7 -213 -11 -40 -16 -45 -42
-48 -58 -6 -306 -7 -283 -2 21 5 21 7 4 13 -14 5 -17 13 -12 33 5 19 3 24 -5
18 -14 -8 -18 -15 59 113 34 55 62 106 62 112 0 20 16 11 52 -28z m1798 18 c0
-5 -7 -9 -15 -9 -15 0 -20 12 -9 23 8 8 24 -1 24 -14z m-3610 -11 c0 -6 -6 -5
-15 2 -8 7 -15 14 -15 16 0 2 7 1 15 -2 8 -4 15 -11 15 -16z m-390 -83 c0 -8
-7 -15 -15 -15 -16 0 -20 12 -8 23 11 12 23 8 23 -8z m3726 -38 c4 -3 -8 -2
-26 3 -19 5 -38 14 -43 19 -5 5 7 4 27 -3 19 -7 39 -15 42 -19z m-3068 -22
l92 -17 -24 -19 c-13 -11 -36 -51 -51 -89 -24 -63 -29 -69 -46 -59 -29 15 -68
80 -89 146 -20 63 -18 78 8 64 10 -5 59 -17 110 -26z m3119 19 c-3 -3 -12 -4
-19 -1 -8 3 -5 6 6 6 11 1 17 -2 13 -5z m293 -9 c0 -8 -9 -15 -20 -15 -11 0
-20 7 -20 15 0 8 9 15 20 15 11 0 20 -7 20 -15z m-3886 -1 c9 -3 16 -12 16
-20 0 -21 -28 -17 -40 6 -11 21 -4 25 24 14z m-125 -13 c21 -13 6 -41 -18 -34
-21 5 -27 23 -14 36 8 9 15 9 32 -2z m187 -48 c-7 -7 -26 7 -26 19 0 6 6 6 15
-2 9 -7 13 -15 11 -17z m-3 -30 c88 -29 90 -38 9 -57 -39 -9 -80 -16 -92 -16
-39 0 -10 -18 40 -25 48 -7 64 -18 38 -28 -30 -10 5 -16 120 -19 67 -1 121 -6
120 -9 -6 -15 -151 -139 -162 -139 -7 0 -27 -14 -45 -32 l-32 -31 -67 19 c-66
19 -68 20 -99 79 -18 33 -33 65 -33 72 0 7 -10 28 -22 47 -22 33 -75 129 -80
143 -10 28 216 24 305 -4z m3617 -13 c92 -27 214 -83 323 -149 46 -28 130 -67
188 -87 57 -20 105 -38 107 -39 2 -2 -18 -18 -45 -36 -63 -43 -194 -170 -247
-239 -204 -269 -305 -566 -293 -860 7 -154 35 -259 111 -415 30 -60 53 -111
52 -112 -7 -7 -232 53 -346 92 -158 55 -230 74 -284 75 -30 0 -37 3 -32 15 10
26 -50 -13 -105 -68 l-47 -48 -10 48 c-21 95 -72 380 -87 483 -8 58 -27 165
-41 238 -24 131 -24 133 -6 160 106 151 294 635 332 852 19 108 19 108 97 113
127 8 255 -1 333 -23z m308 9 c7 -12 11 -23 8 -27 -7 -6 -46 27 -46 40 0 16
25 8 38 -13z m-5721 -3 c0 -8 -16 -21 -36 -31 l-36 -16 35 30 c19 17 35 30 36
31 0 0 1 -6 1 -14z m2092 -31 c0 -5 -6 -1 -14 9 -8 11 -15 24 -15 30 0 5 7 1
15 -10 8 -10 14 -23 14 -29z m-668 12 c-10 -9 -11 -8 -5 6 3 10 9 15 12 12 3
-3 0 -11 -7 -18z m4689 -2 c13 -14 21 -25 18 -25 -2 0 -15 11 -28 25 -13 14
-21 25 -18 25 2 0 15 -11 28 -25z m-5505 -125 c91 -261 225 -482 412 -681 53
-56 64 -72 53 -82 -10 -9 -11 -9 -6 1 4 6 2 12 -4 12 -6 0 -9 4 -6 8 7 12 -37
7 -59 -7 -18 -11 -16 -12 17 -9 20 2 35 1 33 -2 -2 -3 0 -12 5 -20 5 -8 4 -22
-2 -33 -8 -16 -17 -18 -49 -13 -21 3 -39 4 -39 0 0 -13 31 -35 41 -28 8 5 9 3
4 -6 -4 -7 -2 -16 6 -21 11 -7 11 -9 1 -9 -20 0 -178 157 -227 225 -65 91
-295 473 -295 490 0 2 -13 32 -29 67 -33 70 -60 140 -68 178 -6 24 -6 24 20 7
19 -12 38 -16 64 -11 21 3 47 7 58 8 16 3 19 9 17 37 -2 19 -2 32 1 29 3 -3
26 -66 52 -140z m1630 -79 c17 -6 59 -19 94 -30 l64 -18 -69 -45 c-38 -25 -93
-69 -121 -96 -29 -28 -63 -58 -75 -66 -20 -14 -21 -16 -4 -16 11 0 43 18 73
41 50 37 137 74 153 64 8 -5 -3 -75 -14 -93 -13 -21 1 -13 94 49 50 34 93 59
96 56 3 -3 -12 -32 -33 -64 -22 -32 -42 -66 -45 -74 -4 -11 -25 -18 -65 -23
-32 -3 -84 -12 -115 -18 -62 -13 -97 -3 -157 43 -14 11 -49 37 -77 58 -28 21
-72 64 -99 96 -46 54 -48 58 -31 71 11 7 49 23 85 35 36 12 71 25 76 29 35 27
96 28 170 1z m2542 -3 c-3 -8 -6 -5 -6 6 -1 11 2 17 5 13 3 -3 4 -12 1 -19z
m1488 -65 c44 -14 142 -54 217 -89 76 -35 140 -64 142 -64 2 0 20 -7 41 -15
l37 -16 -39 -28 c-57 -42 -163 -157 -213 -230 -23 -35 -62 -105 -85 -155 -93
-198 -130 -359 -129 -556 1 -206 46 -350 172 -548 40 -63 72 -116 72 -118 0
-3 -120 -4 -267 -3 -249 2 -421 11 -462 24 -46 14 -188 258 -241 413 -77 228
-63 502 41 761 108 271 319 529 524 640 46 25 65 23 190 -16z m-3652 -146 c26
-24 47 -47 47 -51 0 -9 -148 -2 -157 8 -4 4 53 86 61 86 1 0 24 -19 49 -43z
m-3715 -113 c146 -57 241 -109 333 -181 121 -94 233 -266 258 -395 27 -143 43
-301 39 -414 l-3 -122 -58 -115 c-94 -189 -243 -367 -308 -367 -24 0 -14 13
90 118 130 131 204 242 227 339 39 165 21 459 -38 601 -113 272 -425 513 -722
558 -29 4 -36 8 -25 15 30 19 93 8 207 -37z m7972 -9 c0 -8 -4 -15 -9 -15 -19
0 -207 -188 -260 -260 -72 -98 -144 -243 -173 -350 -32 -119 -32 -337 0 -456
23 -86 68 -200 109 -274 l25 -45 -30 33 c-36 40 -111 192 -140 282 -35 108
-45 216 -32 348 20 203 92 372 230 538 53 63 199 194 230 207 28 10 50 7 50
-8z m-442 -347 c16 -16 15 -28 -2 -28 -17 0 -38 24 -29 33 9 10 17 9 31 -5z
m-5331 -236 c56 -40 105 -81 108 -91 3 -10 12 -54 19 -97 8 -43 17 -87 21 -96
5 -12 -12 -29 -72 -69 -96 -65 -304 -221 -320 -240 -9 -11 -7 -31 8 -88 11
-40 26 -89 34 -108 8 -20 15 -41 15 -48 0 -6 -37 -41 -82 -78 -94 -74 -116
-94 -211 -186 l-68 -66 5 50 c28 266 34 304 86 550 19 94 176 754 186 784 3 9
33 -14 87 -65 45 -44 128 -112 184 -152z m17 219 c4 -5 -3 -7 -14 -4 -23 6
-26 13 -6 13 8 0 17 -4 20 -9z m-1564 -46 c28 -34 -22 -102 -55 -75 -24 20
-28 50 -9 71 21 23 47 25 64 4z m5115 -339 c46 -272 65 -370 139 -701 32 -145
42 -213 61 -400 l6 -60 -33 31 c-18 17 -49 46 -68 64 -19 18 -101 91 -182 162
-143 125 -147 130 -141 161 6 31 20 67 121 298 55 127 90 241 84 276 -5 33
-108 122 -180 156 -61 28 -64 31 -58 59 3 17 36 63 74 106 38 42 79 92 92 110
12 19 26 30 30 25 5 -4 29 -134 55 -287z m-3485 258 c0 -8 -7 -14 -15 -14 -15
0 -21 21 -9 33 10 9 24 -2 24 -19z m1635 -13 c121 -56 212 -249 203 -431 -6
-112 -40 -192 -112 -257 -61 -55 -81 -63 -153 -63 -113 0 -197 68 -234 190
-44 147 -6 406 74 497 35 39 117 83 157 83 14 0 43 -9 65 -19z m-587 -183 c23
-8 40 -17 36 -21 -4 -4 -1 -7 6 -7 7 0 10 -3 6 -7 -4 -4 6 -14 22 -23 54 -29
171 -115 172 -126 0 -5 -13 -23 -30 -39 -29 -27 -31 -28 -112 -21 -124 10
-174 -8 -258 -92 -59 -59 -120 -140 -120 -158 0 -10 70 3 200 36 123 32 272
72 306 84 17 5 23 2 27 -16 4 -13 27 -55 52 -95 25 -39 48 -87 51 -105 5 -28
1 -38 -29 -65 -42 -38 -137 -100 -282 -184 -293 -169 -356 -220 -469 -378 -89
-125 -242 -374 -296 -480 -36 -72 -156 -236 -172 -236 -14 0 -83 189 -104 284
-14 62 -16 105 -10 249 7 173 18 227 43 218 21 -8 16 6 -27 76 -21 36 -47 85
-56 109 -10 24 -28 60 -41 79 -13 19 -23 40 -23 47 0 7 -5 13 -10 13 -6 0 -8
11 -4 25 4 17 2 25 -7 25 -8 0 -25 18 -39 40 -13 22 -28 40 -32 40 -4 0 -8 4
-8 9 0 6 -11 21 -24 36 -20 22 -25 23 -36 10 -10 -12 -10 -15 1 -15 12 0 12
-2 0 -9 -11 -7 -10 -14 6 -37 11 -16 23 -40 27 -54 7 -24 6 -24 -8 -6 -9 11
-16 25 -16 32 0 7 -3 14 -7 16 -12 5 -52 93 -62 136 -5 20 -14 51 -19 69 -13
40 -5 49 142 158 315 234 556 349 836 399 53 9 326 -2 368 -16z m1957 -23
c134 -21 157 -27 250 -65 104 -44 185 -119 185 -171 0 -37 -36 -139 -70 -196
-11 -19 -20 -43 -20 -54 0 -11 -4 -17 -10 -14 -6 3 -7 -1 -4 -10 4 -8 0 -25
-8 -38 -8 -12 -21 -40 -28 -62 -7 -22 -16 -42 -20 -45 -3 -3 -16 -34 -27 -70
-21 -62 -51 -135 -141 -336 -63 -142 -72 -184 -79 -349 -3 -82 -12 -166 -19
-185 l-13 -35 0 41 c-2 73 -108 211 -328 424 -170 166 -196 181 -492 281 -110
38 -186 86 -280 178 -79 77 -116 139 -108 185 9 49 62 156 78 156 5 0 28 -9
51 -21 78 -40 217 -89 252 -89 48 0 171 27 212 46 58 28 45 44 -95 122 -168
93 -194 100 -302 79 -116 -23 -119 -23 -119 13 0 38 42 81 146 149 66 43 85
51 157 60 225 32 648 35 832 6z m-1912 -301 c37 -19 65 -39 62 -43 -12 -20
-183 -72 -224 -69 l-42 3 51 73 c30 43 58 72 68 72 10 0 48 -16 85 -36z m1192
-26 c52 -25 90 -50 90 -58 0 -26 -71 -52 -155 -57 -70 -5 -89 -2 -154 21 -96
35 -106 47 -67 75 54 39 135 71 166 67 17 -2 71 -24 120 -48z m1707 -255 c78
-26 135 -50 132 -55 -4 -6 2 -8 14 -4 30 10 76 -4 62 -18 -8 -8 -13 -7 -20 4
-7 10 -13 11 -17 5 -10 -13 -65 -16 -57 -4 3 5 0 9 -5 9 -6 0 -11 -4 -11 -10
0 -5 -10 -10 -23 -10 -13 0 -27 -4 -32 -9 -6 -5 -30 -6 -55 -2 l-45 7 72 7
c42 5 76 14 83 23 14 16 17 15 -70 20 -37 2 -58 8 -66 19 -20 27 -33 9 -27
-37 4 -39 3 -41 -13 -27 -10 8 -15 9 -11 3 3 -6 0 -11 -8 -11 -8 0 -12 4 -10
8 3 3 0 21 -6 38 -8 21 -18 31 -32 32 -21 0 -21 1 -2 9 17 7 16 9 -10 9 -16 1
-36 5 -44 10 -10 7 -19 5 -26 -6 -10 -14 -12 -12 -11 8 1 13 6 27 11 32 17 12
83 -2 227 -50z m-247 27 c0 -8 -13 -17 -29 -21 -15 -4 -37 -16 -47 -25 -12
-10 -19 -12 -19 -5 0 6 11 17 25 23 14 6 25 15 25 19 0 5 8 5 17 2 13 -5 15
-2 10 11 -5 12 -3 16 5 14 7 -3 13 -11 13 -18z m310 -80 c-3 -5 -10 -10 -16
-10 -5 0 -9 5 -9 10 0 6 7 10 16 10 8 0 12 -4 9 -10z m-379 -32 c-12 -19 -13
-34 -5 -83 6 -33 12 -76 13 -95 2 -23 2 -25 -1 -5 -3 16 -8 34 -13 40 -5 6
-12 39 -16 74 -6 56 -5 66 11 78 26 18 28 17 11 -9z m-4358 -32 l46 -44 -11
-128 c-6 -71 -16 -140 -21 -154 l-10 -25 -8 33 c-5 24 -9 30 -15 20 -5 -7 -6
4 -4 27 3 23 2 33 -2 23 -6 -12 -12 -15 -23 -8 -8 5 -19 10 -25 10 -5 0 -4 -4
4 -9 9 -6 -4 -9 -40 -9 -36 -1 -49 2 -39 8 9 6 10 10 3 10 -6 0 -15 -4 -18
-10 -3 -5 -11 -10 -16 -10 -6 0 -8 4 -5 9 3 5 -33 12 -80 16 -74 6 -87 10
-100 30 -9 13 -13 28 -10 33 3 5 -1 18 -10 28 -15 18 -15 18 -9 -2 5 -18 2
-21 -20 -19 -14 2 -25 -1 -25 -6 0 -5 -5 -8 -11 -6 -11 2 -23 -15 -33 -45 -3
-10 -10 -18 -16 -18 -10 0 15 64 36 90 7 8 22 40 33 71 25 65 53 99 84 100 12
0 42 6 67 13 25 8 87 14 138 15 l93 1 47 -44z m4927 34 c3 -5 18 -10 32 -10
15 0 24 -3 20 -6 -9 -9 -77 5 -77 16 0 13 17 13 25 0z m-563 -42 c-7 -7 -12
-8 -12 -2 0 14 12 26 19 19 2 -3 -1 -11 -7 -17z m655 16 c-3 -3 -12 -4 -19 -1
-8 3 -5 6 6 6 11 1 17 -2 13 -5z m60 -10 c-3 -3 -12 -4 -19 -1 -8 3 -5 6 6 6
11 1 17 -2 13 -5z m56 -24 c10 -16 17 -30 15 -30 -2 0 -16 14 -31 30 -18 18
-23 30 -15 30 8 0 22 -13 31 -30z m-5556 -177 c-10 -22 -13 -24 -15 -9 -2 10
2 22 10 27 19 12 19 12 5 -18z m6080 2 c14 -31 12 -31 -17 0 -16 17 -19 25 -9
25 8 0 19 -11 26 -25z m-6121 -52 c-16 -28 -16 -28 -10 -2 3 14 7 34 9 45 5
30 7 31 12 7 2 -12 -3 -34 -11 -50z m-1153 34 c-3 -4 -7 -6 -10 -3 -3 3 -17
-4 -31 -14 -13 -11 -30 -20 -36 -20 -6 0 -4 5 4 10 13 9 13 10 0 10 -8 1 -1 7
15 14 33 15 67 17 58 3z m6165 -14 c2 -8 -5 -13 -17 -13 -12 0 -21 6 -21 16 0
18 31 15 38 -3z m482 2 c0 -8 -7 -15 -15 -15 -8 0 -15 7 -15 15 0 8 7 15 15
15 8 0 15 -7 15 -15z m-565 -9 c18 -13 18 -14 -5 -26 -20 -11 -25 -10 -36 5
-24 32 5 47 41 21z m1231 -6 c0 -12 -4 -16 -9 -11 -5 5 -6 14 -3 20 10 15 12
14 12 -9z m-5177 -64 c36 -79 109 -194 146 -228 27 -25 27 -26 35 -214 8 -197
23 -277 79 -407 12 -27 21 -53 21 -59 0 -5 -24 -37 -54 -70 -92 -101 -236
-337 -236 -386 0 -10 26 -65 58 -122 l59 -105 -36 -7 c-201 -39 -357 -49 -422
-26 -97 33 -230 156 -325 298 -107 162 -203 395 -188 457 4 12 2 23 -3 23 -18
0 -115 -247 -128 -325 -3 -22 -10 -47 -15 -55 -24 -38 5 274 36 380 8 30 35
96 59 146 41 84 56 102 197 243 152 152 173 172 318 292 120 99 319 229 352
229 12 0 27 -21 47 -64z m4118 48 c5 -15 -20 -24 -37 -14 -7 4 -9 13 -5 19 8
14 37 11 42 -5z m-230 -38 c-11 -27 -27 -17 -27 16 0 30 1 31 16 16 9 -9 14
-24 11 -32z m-4956 1 l-24 -22 19 27 c10 14 21 24 23 22 3 -3 -6 -15 -18 -27z
m-516 13 c-3 -5 -11 -10 -16 -10 -6 0 -7 5 -4 10 3 6 11 10 16 10 6 0 7 -4 4
-10z m6089 -50 c4 -21 14 -34 32 -41 22 -8 25 -12 15 -22 -10 -9 -15 -8 -25 6
-7 9 -18 17 -23 17 -6 0 -13 8 -16 18 -2 9 -8 25 -12 35 -5 12 -3 17 8 17 8 0
17 -13 21 -30z m-5631 3 c-7 -2 -21 -2 -30 0 -10 3 -4 5 12 5 17 0 24 -2 18
-5z m-1503 -7 c0 -2 -8 -10 -17 -17 -16 -13 -17 -12 -4 4 13 16 21 21 21 13z
m7395 -6 c3 -6 -1 -13 -10 -16 -19 -8 -30 0 -20 15 8 14 22 14 30 1z m-990
-117 c145 -153 160 -170 237 -283 97 -141 164 -281 206 -425 25 -86 38 -167
23 -145 -13 19 -13 19 -65 -87 -46 -94 -98 -156 -176 -209 -57 -40 -215 -99
-303 -114 -70 -13 -200 -10 -213 3 -5 4 0 29 10 55 11 26 21 62 24 79 2 18 8
30 13 27 15 -9 10 5 -12 36 -12 15 -28 26 -35 23 -7 -2 -23 2 -36 11 -12 9
-19 16 -15 16 9 0 -39 77 -71 112 -13 14 -23 28 -21 30 2 1 -7 17 -19 33 -12
17 -22 33 -22 38 0 4 -9 17 -21 30 -36 38 -41 54 -19 60 16 4 18 2 11 -11 -9
-16 3 -35 72 -111 12 -13 21 -31 19 -40 -2 -11 0 -12 5 -4 6 8 13 2 23 -20 7
-17 15 -26 17 -20 3 7 -3 23 -12 37 -9 14 -15 31 -13 37 5 16 48 -56 48 -81 0
-10 4 -21 9 -24 8 -5 2 39 -14 98 -7 27 -7 28 16 15 14 -7 19 -14 11 -17 -6
-2 -12 -9 -12 -15 0 -8 3 -8 11 0 6 6 19 9 28 5 19 -7 -36 65 -97 128 -66 67
-74 82 -73 148 0 82 30 280 47 318 9 17 34 54 57 81 23 28 77 96 120 152 43
55 83 101 88 101 5 0 9 8 9 18 0 20 8 32 23 32 5 0 60 -53 122 -117z m-6475
101 c0 -12 -55 -64 -68 -64 -7 0 -12 -6 -10 -13 3 -14 -28 -58 -52 -72 -13 -8
-13 -7 0 11 7 10 21 25 29 32 11 9 12 12 2 12 -8 0 -20 -8 -27 -17 -13 -17
-13 -17 -14 0 0 19 -15 23 -23 7 -3 -6 -4 -5 -3 2 1 7 17 13 35 14 38 2 54 19
46 52 -3 12 -2 21 2 20 5 0 15 1 23 5 44 17 60 20 60 11z m2176 -9 c-3 -20
-26 -44 -26 -27 0 7 5 12 10 12 6 0 9 3 9 8 -2 11 1 22 5 22 2 0 3 -7 2 -15z
m5208 6 c9 -14 -4 -41 -20 -41 -8 0 -14 10 -14 25 0 25 23 35 34 16z m-7289
-21 c-3 -5 -12 -10 -18 -10 -7 0 -6 4 3 10 19 12 23 12 15 0z m4037 -21 c-5
-13 -13 -59 -17 -101 -3 -43 -11 -80 -16 -84 -5 -3 -7 -9 -4 -13 5 -8 -20
-143 -32 -171 -3 -8 -5 -24 -4 -35 1 -12 -9 -86 -23 -165 -13 -80 -32 -219
-42 -310 -9 -91 -22 -170 -28 -177 -6 -6 -51 -28 -101 -48 -140 -58 -341 -162
-438 -227 -87 -58 -90 -59 -109 -41 -60 54 -227 303 -298 443 l-30 59 23 13
c12 6 40 22 62 35 22 13 94 49 160 81 242 118 377 223 623 485 42 44 78 75 84
71 7 -5 8 -2 3 5 -4 8 5 24 24 43 28 28 31 28 31 10 0 -12 4 -23 9 -26 5 -3 7
-14 4 -25 -4 -14 2 -19 25 -23 29 -4 30 -2 36 40 9 64 7 94 -4 87 -5 -3 -7
-12 -4 -19 3 -8 1 -17 -5 -21 -6 -3 -9 0 -6 7 4 9 -2 14 -16 15 -14 1 -19 -3
-15 -13 3 -8 1 -14 -4 -14 -6 0 -10 5 -10 12 0 16 31 48 47 48 7 0 12 5 11 11
-2 6 3 14 11 17 9 3 11 0 6 -8 -5 -9 -4 -11 4 -6 6 4 9 12 5 17 -6 10 35 63
43 55 2 -2 0 -14 -5 -27z m-4232 1 c10 -6 2 -7 -25 -3 -49 7 -58 13 -19 13 16
0 36 -5 44 -10z m140 -7 c-14 -9 -27 -19 -30 -22 -6 -7 -30 -13 -30 -7 0 6 64
46 75 46 5 0 -2 -8 -15 -17z m-143 -19 c-3 -3 -12 -4 -19 -1 -8 3 -5 6 6 6 11
1 17 -2 13 -5z m5148 -151 c17 -7 68 -45 115 -84 89 -74 321 -233 425 -289 33
-19 67 -39 75 -46 25 -20 103 -61 142 -73 21 -7 44 -22 52 -33 14 -20 11 -25
-48 -89 -35 -38 -115 -135 -179 -217 -64 -82 -123 -152 -132 -156 -16 -6 -118
5 -255 28 -47 8 -139 24 -205 35 -67 12 -138 21 -158 21 -44 0 -43 -2 -52 170
-6 119 -20 224 -66 497 -22 125 -21 164 2 294 l13 76 121 -61 c66 -34 134 -67
150 -73z m-5103 84 c-13 -16 -6 -27 17 -27 14 0 14 2 1 11 -12 8 -10 9 8 4 15
-4 22 -2 22 7 0 10 3 9 11 -2 8 -11 12 -12 16 -2 2 6 12 12 21 12 10 0 -5 -14
-31 -30 -37 -24 -52 -28 -67 -20 -25 13 -27 13 -27 -5 0 -11 7 -14 21 -10 21
6 21 6 2 -9 -11 -9 -24 -16 -29 -16 -4 0 -29 -14 -53 -31 -25 -17 -47 -29 -49
-27 -2 1 28 36 66 77 38 40 69 78 69 84 0 6 3 7 6 4 4 -4 2 -13 -4 -20z m7548
13 c0 -5 -7 -10 -15 -10 -8 0 -15 5 -15 10 0 6 7 10 15 10 8 0 15 -4 15 -10z
m1080 -20 c0 -11 -6 -20 -14 -20 -18 0 -29 16 -21 30 11 18 35 11 35 -10z
m-1100 -65 c0 -8 -4 -15 -10 -15 -5 0 -10 7 -10 15 0 8 5 15 10 15 6 0 10 -7
10 -15z m-132 -22 c-4 -22 -22 -20 -26 1 -2 10 3 16 13 16 10 0 15 -7 13 -17z
m-7268 -3 c0 -5 -4 -10 -10 -10 -5 0 -10 5 -10 10 0 6 5 10 10 10 6 0 10 -4
10 -10z m8400 -74 c0 -30 -16 -42 -35 -26 -25 21 -19 50 10 50 20 0 25 -5 25
-24z m-8060 0 c0 -18 -16 -29 -30 -21 -13 8 -1 35 16 35 8 0 14 -6 14 -14z
m4272 -161 c50 -54 57 -67 72 -135 36 -170 66 -473 47 -484 -9 -6 -99 19 -288
79 -16 5 -17 63 -3 171 5 43 19 165 30 269 12 105 23 200 27 213 5 21 7 20 32
-16 15 -20 53 -64 83 -97z m-4132 52 c0 -8 -12 -19 -26 -25 -20 -10 -24 -10
-18 0 22 38 44 50 44 25z m2901 -62 c-1 -15 -24 -12 -29 3 -3 9 2 13 12 10 10
-1 17 -7 17 -13z m2077 -2 c-4 -22 -48 -31 -48 -10 0 19 10 27 32 27 13 0 18
-6 16 -17z m-2237 -38 c-9 -24 -20 -47 -24 -51 -4 -4 -7 -19 -8 -33 0 -15 -3
-20 -6 -12 -4 10 -12 4 -25 -20 l-19 -34 7 34 c3 19 22 58 40 87 19 29 34 58
34 64 0 5 4 10 9 10 5 0 1 -20 -8 -45z m74 35 c3 -6 -1 -13 -10 -16 -19 -8
-30 0 -20 15 8 14 22 14 30 1z m-2017 -57 c-5 -26 -38 -29 -38 -4 0 15 6 21
21 21 14 0 19 -5 17 -17z m2206 -17 c-7 -19 -34 -29 -34 -12 0 16 10 26 26 26
8 0 11 -6 8 -14z m644 -261 l-3 -209 -30 -7 c-52 -13 -125 -16 -131 -7 -4 6
-2 20 4 31 26 55 142 381 142 400 0 14 3 18 10 11 7 -7 9 -87 8 -219z m-2638
175 c-12 -22 -30 -18 -30 6 0 8 9 14 20 14 18 0 19 -3 10 -20z m1727 -43 c10
4 14 2 10 -4 -5 -7 1 -9 15 -6 23 4 23 4 3 -11 -11 -9 -25 -14 -33 -11 -7 2
-11 1 -8 -3 5 -9 -63 -46 -70 -39 -9 9 8 35 32 47 13 7 24 20 25 29 0 10 3 11
5 4 3 -7 12 -9 21 -6z m2598 -17 c3 -5 1 -10 -4 -10 -6 0 -11 5 -11 10 0 6 2
10 4 10 3 0 8 -4 11 -10z m101 -232 c53 -79 100 -153 105 -166 14 -37 -49
-142 -169 -283 -57 -67 -128 -153 -159 -191 -30 -38 -61 -72 -69 -75 -8 -3
-125 0 -261 6 -188 8 -281 17 -383 36 -167 31 -176 35 -184 77 -12 65 -35 358
-30 373 4 9 14 13 28 10 11 -2 57 -9 101 -15 44 -6 136 -22 205 -35 69 -13
171 -27 228 -31 l103 -7 55 59 c30 32 84 97 120 144 74 98 196 239 206 240 4
0 50 -64 104 -142z m992 107 c-3 -3 -9 2 -12 12 -6 14 -5 15 5 6 7 -7 10 -15
7 -18z m-2937 -108 c-8 -8 -11 -3 -11 19 1 25 2 27 11 11 8 -14 8 -22 0 -30z
m-1061 -2 c0 -14 68 -150 113 -225 28 -46 160 -212 204 -256 l35 -35 46 27
c26 15 65 39 87 54 85 57 469 240 503 240 11 0 13 -8 8 -32 -3 -18 -10 -98
-16 -178 -14 -214 -21 -268 -34 -279 -6 -5 -58 -25 -116 -44 -177 -59 -282
-105 -455 -201 -55 -31 -119 -58 -142 -62 -40 -6 -45 -4 -94 42 -106 99 -308
373 -379 513 l-32 64 39 76 c52 104 127 218 176 269 44 45 57 51 57 27z
m-1338 -277 c-2 -141 -6 -176 -19 -190 -19 -21 -35 -14 -31 15 3 24 -20 87
-32 87 -4 0 -11 -10 -14 -22 l-7 -23 -10 23 c-10 27 -5 42 17 42 8 0 14 9 14
22 0 20 -1 21 -20 3 -11 -10 -34 -18 -52 -19 -35 -1 -70 -27 -64 -48 1 -7 1
-10 -1 -5 -3 4 -9 4 -14 1 -6 -4 -6 -11 1 -20 7 -7 10 -19 7 -26 -3 -8 -6 -5
-6 6 -1 17 -5 16 -30 -10 -28 -27 -29 -30 -13 -48 14 -15 14 -17 2 -15 -21 4
-60 -10 -60 -23 0 -6 6 -6 15 2 9 7 18 10 21 8 3 -3 -9 -16 -26 -28 -22 -16
-28 -25 -19 -30 7 -5 9 -16 5 -26 -5 -13 -9 -15 -18 -6 -18 18 -26 15 -30 -10
-2 -14 -10 -23 -20 -23 -9 0 -27 -10 -38 -23 -12 -13 -24 -21 -27 -18 -8 8 70
104 89 111 10 4 15 12 11 21 -3 7 0 14 6 14 6 0 11 -5 11 -11 0 -5 5 -7 11 -3
8 4 7 9 -2 15 -11 8 -10 12 5 24 11 8 16 15 10 15 -5 0 9 17 32 38 22 21 39
43 38 48 -2 5 17 32 41 59 30 34 45 44 45 33 0 -10 4 -18 9 -18 4 0 6 10 4 23
-3 17 9 40 44 83 62 77 105 124 112 124 3 0 5 -77 3 -172z m2388 163 c0 -6 -4
-13 -10 -16 -5 -3 -10 1 -10 9 0 9 5 16 10 16 6 0 10 -4 10 -9z m616 -245 c8
-21 -15 -58 -33 -54 -26 5 -39 34 -24 52 17 20 50 21 57 2z m-3246 -106 c0 -5
-5 -10 -11 -10 -5 0 -7 5 -4 10 3 6 8 10 11 10 2 0 4 -4 4 -10z m40 -67 c0
-12 -4 -11 -20 7 -12 13 -20 18 -20 10 0 -7 -3 -11 -6 -7 -3 3 -3 10 1 16 9
16 45 -5 45 -26z m102 13 c-2 -5 1 -12 6 -15 6 -3 -3 -21 -19 -40 -22 -27 -31
-32 -42 -23 -8 7 -16 11 -18 9 -3 -1 13 15 36 36 30 29 35 37 18 32 -12 -3
-24 -1 -27 4 -4 6 5 9 21 8 16 -1 26 -6 25 -11z m-169 -47 c-5 -19 -23 -27
-23 -9 0 5 -8 6 -17 3 -15 -6 -15 -5 -3 8 21 23 49 22 43 -2z m307 -119 c6
-25 15 -70 20 -100 5 -30 12 -66 15 -80 3 -14 -1 -10 -9 10 -8 19 -15 45 -15
58 -1 13 -5 21 -9 18 -5 -3 -8 7 -7 22 2 15 0 19 -2 9 -4 -15 -6 -15 -20 -2
-8 8 -19 13 -24 10 -5 -4 -9 -1 -9 4 0 6 -5 11 -11 11 -6 0 -9 -9 -6 -19 3
-14 1 -18 -10 -14 -12 5 -14 1 -8 -18 5 -18 4 -21 -4 -9 -9 12 -11 11 -11 -7
0 -13 -4 -23 -10 -23 -16 0 -13 9 42 126 59 124 51 123 78 4z m-1130 -93 c0
-4 -6 -2 -14 5 -8 7 -12 17 -9 22 5 8 23 -12 23 -27z m100 19 c0 -3 -4 -8 -10
-11 -5 -3 -10 -1 -10 4 0 6 5 11 10 11 6 0 10 -2 10 -4z m5733 -28 c8 -23 -12
-60 -30 -56 -19 3 -28 30 -19 54 7 17 42 19 49 2z m-2228 -18 c10 -16 -15 -40
-41 -40 -28 0 -31 12 -8 34 18 18 40 21 49 6z m-2620 -60 c-4 -12 -9 -19 -12
-17 -3 3 -2 15 2 27 4 12 9 19 12 17 3 -3 2 -15 -2 -27z m2580 -41 c0 -7 -8
-15 -17 -17 -18 -3 -25 18 -11 32 10 10 28 1 28 -15z m-3570 -29 c4 0 5 6 2
13 -3 8 3 13 17 14 11 0 15 -1 8 -4 -6 -3 -10 -8 -8 -12 3 -3 -9 -14 -25 -23
-16 -10 -29 -13 -29 -8 0 6 5 10 10 10 7 0 7 7 0 23 -10 20 -10 20 3 5 8 -10
18 -18 22 -18z m5611 -1 c10 -17 -13 -36 -27 -22 -12 12 -4 33 11 33 5 0 12
-5 16 -11z m-5796 -3 c0 -3 -4 -8 -10 -11 -5 -3 -10 -1 -10 4 0 6 5 11 10 11
6 0 10 -2 10 -4z m4224 -43 c4 -14 16 -46 28 -72 11 -25 27 -62 35 -81 31 -70
119 -239 164 -313 10 -18 22 -39 26 -47 3 -8 18 -33 33 -55 15 -22 40 -60 56
-85 16 -25 32 -47 35 -50 3 -3 25 -32 49 -65 99 -134 196 -249 295 -349 61
-62 184 -170 203 -179 9 -4 74 -18 144 -31 70 -13 139 -31 152 -40 46 -30 42
-114 -8 -155 -21 -18 -129 -40 -193 -41 -51 0 -55 2 -100 51 -27 28 -70 72
-98 98 -82 76 -266 273 -323 347 -12 16 -45 58 -73 94 -27 36 -56 73 -64 82
-7 9 -22 29 -31 45 -10 15 -32 46 -49 68 -36 46 -112 170 -144 233 -50 98
-171 503 -171 569 0 21 3 23 14 14 8 -7 17 -23 20 -38z m1736 33 c0 -8 -4 -17
-9 -21 -12 -7 -24 12 -16 25 9 15 25 12 25 -4z m-5899 -65 c-7 -5 -10 -14 -7
-20 4 -6 2 -11 -3 -11 -6 0 -11 6 -11 13 0 16 21 39 29 31 3 -3 -1 -9 -8 -13z
m49 16 c0 -2 -10 -12 -21 -23 -22 -19 -22 -19 -8 4 12 19 29 30 29 19z m988
-36 c-1 -15 6 -39 15 -51 12 -18 15 -37 10 -84 -6 -66 21 -277 58 -451 35
-167 35 -185 -6 -325 -67 -232 -141 -543 -175 -735 -5 -27 -16 -88 -24 -135
-59 -329 -90 -723 -90 -1125 0 -286 7 -386 41 -595 10 -64 -16 -19 -58 101
-81 227 -136 484 -181 844 -20 159 -23 223 -23 555 0 368 4 425 41 705 38 289
129 658 233 953 72 200 143 372 156 372 2 0 3 -13 3 -29z m4822 -8 c0 -13 -39
-20 -87 -14 -59 6 -38 26 27 26 40 0 60 -4 60 -12z m-5896 -34 c-10 -12 -30
-27 -44 -34 -23 -12 -26 -11 -26 5 0 14 3 16 13 8 13 -10 14 -9 17 15 1 6 9
11 18 9 9 -1 19 2 23 8 3 5 9 10 12 10 3 0 -2 -9 -13 -21z m-120 -99 c-22 -16
-47 -37 -56 -46 -13 -12 -20 -13 -35 -4 -11 7 -12 10 -3 7 8 -2 25 7 38 20 12
13 26 22 31 19 4 -3 16 3 26 14 10 11 23 20 28 20 5 0 -8 -13 -29 -30z m-124
-75 c-7 -8 -19 -15 -26 -15 -8 0 -14 -4 -14 -10 0 -5 -4 -10 -10 -10 -18 0
-10 15 18 32 34 22 48 23 32 3z m5133 -57 c18 -12 40 -30 50 -39 31 -28 276
-147 382 -185 157 -56 379 -103 544 -116 120 -9 145 -8 152 3 7 12 9 12 9 0 0
-8 6 -11 15 -7 13 5 14 2 5 -15 -6 -11 -19 -22 -28 -25 -24 -7 -73 -32 -174
-86 -48 -26 -108 -54 -135 -64 -47 -17 -49 -17 -128 9 -90 28 -207 77 -265
110 -53 31 -470 412 -470 431 0 11 11 7 43 -16z m-3645 -76 c3 -20 0 -23 -25
-20 -20 2 -29 9 -31 26 -3 20 0 23 25 20 20 -2 29 -9 31 -26z m366 -104 c-43
-206 -49 -294 -48 -663 0 -271 4 -379 17 -477 40 -296 103 -577 183 -811 l44
-128 -37 -47 c-82 -102 -181 -213 -307 -342 -137 -140 -317 -334 -446 -479
l-75 -84 -6 59 c-13 116 -9 498 6 654 52 521 187 1027 550 2065 42 121 86 247
97 280 18 52 35 85 43 85 1 0 -8 -51 -21 -112z m1035 -15 c-13 -15 -11 -16 14
-9 83 20 -45 -52 -170 -97 -74 -27 -173 -74 -173 -82 0 -2 46 -39 103 -81 56
-42 118 -91 137 -109 117 -109 251 -188 415 -246 187 -65 378 -180 348 -210
-10 -10 -59 -24 -236 -69 -133 -34 -142 -32 -354 76 -240 123 -283 147 -368
205 -204 140 -350 256 -386 307 -12 19 -49 54 -80 78 -84 65 -99 87 -99 150 0
29 3 59 6 68 6 17 34 10 34 -8 0 -20 157 -68 281 -85 58 -8 79 -5 222 31 87
22 191 53 230 69 85 33 94 34 76 12z m3513 -161 c10 -31 39 -131 64 -222 25
-91 52 -187 60 -215 75 -267 163 -674 171 -785 4 -68 1 -85 -32 -180 -72 -207
-219 -478 -325 -600 -29 -33 -32 -34 -42 -16 -7 12 -12 102 -14 235 -3 215
-28 520 -75 897 l-22 170 47 235 c39 197 76 415 76 447 0 15 62 103 68 97 3
-3 14 -31 24 -63z m-3924 -397 c405 -284 522 -356 1034 -630 103 -55 213 -138
263 -199 17 -20 55 -56 85 -81 117 -93 110 -80 110 -218 0 -117 -1 -121 -17
-97 -9 14 -42 52 -74 85 -31 33 -70 76 -85 95 -108 132 -424 389 -507 411 -50
13 -166 -1 -204 -26 -25 -17 -25 -19 -21 -108 4 -71 14 -119 43 -207 39 -118
97 -250 135 -307 12 -18 18 -33 13 -33 -23 0 -351 408 -509 634 -38 54 -81
115 -95 135 -100 140 -168 239 -272 396 -66 99 -126 185 -134 192 -12 10 -72
189 -73 217 0 4 37 -30 83 -75 48 -49 142 -126 225 -184z m4402 233 c0 -19 -2
-20 -10 -8 -13 19 -13 30 0 30 6 0 10 -10 10 -22z m-5371 -211 c6 -16 12 -45
12 -65 1 -20 3 -29 6 -19 2 9 8 15 12 13 4 -3 13 -1 21 5 10 6 11 9 3 9 -7 0
-13 5 -13 10 0 6 7 10 16 10 21 0 15 -27 -43 -195 -90 -261 -155 -484 -218
-740 -105 -433 -143 -663 -155 -945 -5 -113 -9 -207 -10 -210 -9 -22 -19 102
-19 228 -3 574 94 1254 271 1917 55 207 56 207 84 99 12 -49 27 -102 33 -117z
m691 18 c12 -55 37 -163 55 -240 63 -262 62 -254 36 -326 -38 -104 -38 -134
-2 -184 39 -55 39 -70 -5 -280 -20 -93 -41 -197 -48 -231 -15 -74 -75 -168
-87 -135 -30 78 -52 359 -52 641 1 235 6 342 33 630 5 58 13 145 16 195 7 83
8 87 20 60 6 -17 22 -75 34 -130z m4698 75 c1 -28 -1 -31 -8 -15 -5 11 -8 38
-8 60 0 34 1 36 8 15 4 -14 8 -41 8 -60z m-662 -1 l-15 -34 -1 28 c0 34 22 81
27 56 2 -8 -3 -31 -11 -50z m-4340 40 c10 -17 -13 -36 -27 -22 -12 12 -4 33
11 33 5 0 12 -5 16 -11z m91 -5 c3 -8 1 -20 -4 -25 -12 -12 -63 11 -63 29 0
18 59 15 67 -4z m1424 -20 c17 -21 0 -49 -32 -49 -24 0 -36 23 -25 51 7 19 40
18 57 -2z m3517 -284 c30 -282 35 -390 29 -593 -6 -225 -34 -494 -68 -661 -40
-200 -128 -512 -174 -619 -20 -45 -18 -31 9 86 60 257 77 589 42 847 -9 63
-22 165 -30 225 -14 99 -58 317 -100 495 -19 79 -20 110 -3 110 14 0 71 94
123 202 36 77 36 78 53 55 9 -12 23 -42 30 -67 20 -70 43 -120 52 -115 4 3 1
21 -7 40 -16 40 -18 69 -4 60 6 -3 10 -18 10 -33 0 -21 2 -24 10 -12 12 18 13
82 2 96 -5 5 -6 34 -3 64 l5 55 7 -65 c3 -36 11 -112 17 -170z m-88 180 c0 -5
-4 -10 -10 -10 -5 0 -10 5 -10 10 0 6 5 10 10 10 6 0 10 -4 10 -10z m35 -40
c3 -5 1 -10 -5 -10 -7 0 -9 -8 -5 -19 3 -11 1 -22 -5 -26 -6 -4 -10 7 -10 29
0 35 12 47 25 26z m25 -40 c0 -5 -4 -10 -10 -10 -5 0 -10 5 -10 10 0 6 5 10
10 10 6 0 10 -4 10 -10z m-4583 -262 c-3 -8 -6 -5 -6 6 -1 11 2 17 5 13 3 -3
4 -12 1 -19z m34 -135 c-12 -20 -14 -14 -5 12 4 9 9 14 11 11 3 -2 0 -13 -6
-23z m3822 -72 c-2 -3 -8 0 -14 6 -7 7 -8 23 -3 45 l8 33 6 -40 c3 -22 4 -42
3 -44z m-3796 -16 c1 -42 -3 -35 -21 39 -6 24 -5 26 7 15 7 -8 14 -32 14 -54z
m-520 -7 c-3 -8 -6 -5 -6 6 -1 11 2 17 5 13 3 -3 4 -12 1 -19z m4291 -12 c-7
-8 -15 -12 -17 -11 -5 6 10 25 20 25 5 0 4 -6 -3 -14z m-4271 -128 c-2 -13 -4
-3 -4 22 0 25 2 35 4 23 2 -13 2 -33 0 -45z m671 -68 c7 0 11 -4 8 -8 -6 -10
126 -140 209 -206 33 -27 89 -83 123 -125 35 -42 122 -135 192 -208 171 -175
288 -324 505 -638 89 -130 175 -246 203 -277 14 -15 23 -30 20 -33 -5 -5 -206
80 -296 125 -113 56 -510 320 -542 359 -3 4 -19 18 -37 31 -17 14 -68 74 -113
134 -61 82 -92 134 -120 205 -59 149 -98 264 -126 375 -28 114 -83 287 -94
299 -4 5 -5 17 -3 28 5 16 10 13 31 -21 15 -22 32 -40 40 -40z m-647 1 c5 9 6
-1 2 -25 -5 -30 -3 -37 7 -31 9 6 12 -1 8 -28 -2 -20 -1 -34 3 -31 20 12 39
-58 40 -146 1 -25 3 -37 6 -27 2 9 8 15 13 12 5 -3 4 -20 -1 -37 -5 -17 -7
-34 -4 -36 2 -2 7 8 11 23 5 20 9 24 18 14 8 -8 8 -13 -1 -16 -15 -6 -17 -33
-3 -33 6 0 10 -5 10 -11 0 -5 -4 -7 -10 -4 -5 3 -10 0 -10 -8 0 -8 6 -17 14
-20 9 -4 12 -14 9 -26 -3 -11 4 -44 15 -74 14 -35 17 -58 11 -66 -5 -6 -6 -9
-3 -6 13 9 34 -18 35 -44 0 -23 1 -24 9 -6 8 18 9 18 10 -5 l1 -25 10 23 c5
13 6 29 2 35 -11 17 -12 67 -2 67 5 0 9 -12 9 -27 -1 -16 1 -43 4 -62 4 -24 0
-41 -15 -62 -11 -16 -24 -29 -28 -29 -11 0 -74 208 -65 221 4 8 3 10 -4 5 -7
-4 -12 -3 -12 3 0 5 -3 17 -7 27 -4 12 -3 15 5 10 7 -4 12 -1 12 8 0 9 -6 16
-13 16 -18 0 -67 184 -82 305 -2 17 -9 46 -14 65 -6 19 -10 46 -10 60 l2 25 4
-24 c4 -19 7 -21 14 -10z m166 -73 c-2 -13 -4 -5 -4 17 -1 22 1 32 4 23 2 -10
2 -28 0 -40z m4150 -62 c-3 -19 -1 -36 4 -38 6 -2 13 -62 16 -133 2 -72 8
-190 11 -263 4 -72 4 -132 1 -132 -3 0 -12 34 -18 76 -7 41 -23 105 -35 142
-13 37 -28 87 -34 112 -6 25 -14 53 -17 63 -4 10 -3 17 4 17 7 0 16 -10 21
-22 7 -19 9 -15 9 21 1 53 12 46 27 -17 l12 -47 1 45 c0 25 -4 61 -9 80 -10
33 -4 130 7 130 3 0 3 -15 0 -34z m-4147 -216 c-6 -25 -8 -4 -8 75 l1 110 8
-75 c4 -41 4 -91 -1 -110z m4649 68 c0 -33 -2 -38 -9 -23 -8 19 -9 19 -9 1 -1
-10 6 -24 15 -31 9 -6 15 -19 13 -29 -3 -13 -9 -8 -23 18 -13 25 -17 45 -12
70 9 50 26 45 25 -6z m-42 -70 c-3 -8 -6 -5 -6 6 -1 11 2 17 5 13 3 -3 4 -12
1 -19z m-4585 -110 c2 -21 0 -38 -4 -38 -4 0 -8 21 -7 48 1 52 6 48 11 -10z
m4647 -338 c-11 -178 -38 -353 -82 -525 l-33 -130 -96 135 c-140 197 -158 229
-158 270 0 20 -7 62 -15 94 l-15 59 57 76 c31 42 60 78 65 79 4 2 8 9 8 15 0
20 57 97 65 89 5 -4 5 -1 0 7 -4 7 -3 16 1 20 5 3 14 17 20 31 11 25 11 25 10
-7 -1 -17 -4 -29 -8 -26 -5 2 -7 -15 -7 -39 1 -40 2 -41 9 -13 4 17 8 23 9 14
1 -21 31 -34 31 -14 0 13 19 20 44 16 5 -1 18 6 29 16 19 17 20 17 14 1 -13
-36 3 -17 23 26 14 31 20 69 22 123 1 67 2 60 9 -47 4 -69 3 -190 -2 -270z
m-138 284 c-5 -16 -10 -21 -10 -12 -1 18 10 51 15 45 2 -1 -1 -16 -5 -33z
m-4521 -38 c0 -3 -4 -8 -10 -11 -5 -3 -10 -1 -10 4 0 6 5 11 10 11 6 0 10 -2
10 -4z m4580 -71 c0 -9 -6 -12 -15 -9 -8 4 -12 10 -9 15 8 14 24 10 24 -6z
m-2222 -213 c114 -176 289 -439 304 -457 9 -11 37 -48 62 -82 44 -61 261 -245
399 -340 34 -24 71 -49 82 -57 28 -19 58 -113 44 -139 -10 -18 -18 -19 -128
-13 -192 12 -198 15 -276 163 -31 58 -44 73 -64 75 -22 3 -26 8 -26 38 0 19
-4 42 -10 50 -12 18 -21 34 -75 135 -77 145 -91 166 -170 252 -71 78 -170 219
-170 243 0 6 -4 10 -10 10 -5 0 -12 11 -16 25 -3 13 -9 24 -13 23 -28 -3 -31
5 -31 105 l1 102 25 -30 c14 -16 46 -63 72 -103z m1076 82 c9 -3 16 -17 16
-30 0 -19 -5 -24 -24 -24 -28 0 -42 26 -25 46 13 16 12 16 33 8z m1401 -1144
c17 -19 17 -20 0 -20 -10 0 -15 3 -12 7 4 3 2 12 -4 20 -18 21 -4 15 16 -7z
m-455 -45 c0 -8 -7 -15 -15 -15 -8 0 -15 7 -15 15 0 8 7 15 15 15 8 0 15 -7
15 -15z m509 -39 c-3 -3 -11 5 -18 17 -13 21 -12 21 5 5 10 -10 16 -20 13 -22z
m-1809 -71 c0 -8 -7 -15 -15 -15 -16 0 -20 12 -8 23 11 12 23 8 23 -8z"/>
<path d="M2745 10221 c9 -16 108 -69 140 -76 17 -4 -6 13 -55 39 -92 50 -94
51 -85 37z"/>
<path d="M5977 10403 c-11 -11 -8 -20 7 -20 8 0 12 6 9 14 -6 15 -7 15 -16 6z"/>
<path d="M5514 9678 c-4 -7 -3 -8 4 -4 7 4 12 2 12 -3 0 -6 7 -11 15 -11 9 0
12 6 9 15 -7 18 -30 20 -40 3z"/>
<path d="M1931 9538 c-65 -104 -94 -163 -89 -179 2 -5 30 37 63 93 111 190
130 254 26 86z"/>
<path d="M1698 9188 c-52 -78 -203 -256 -340 -401 -125 -133 -154 -183 -47
-81 135 129 390 430 416 493 22 51 10 47 -29 -11z"/>
<path d="M2086 7897 c3 -10 9 -15 12 -12 3 3 0 11 -7 18 -10 9 -11 8 -5 -6z"/>
<path d="M2290 6876 c0 -3 9 -10 20 -16 11 -6 20 -8 20 -6 0 3 -9 10 -20 16
-11 6 -20 8 -20 6z"/>
<path d="M5735 9000 c3 -5 8 -10 11 -10 2 0 4 5 4 10 0 6 -5 10 -11 10 -5 0
-7 -4 -4 -10z"/>
<path d="M3530 8560 c0 -5 11 -10 24 -10 14 0 28 5 31 10 4 6 -7 10 -24 10
-17 0 -31 -4 -31 -10z"/>
<path d="M2860 7798 c10 -11 16 -26 13 -34 -3 -8 0 -14 6 -14 16 0 31 42 20
56 -5 6 -20 12 -33 12 -24 0 -24 -1 -6 -20z m35 2 c3 -5 -1 -10 -9 -10 -9 0
-16 5 -16 10 0 6 4 10 9 10 6 0 13 -4 16 -10z"/>
<path d="M2830 7796 c0 -2 8 -10 18 -17 15 -13 16 -12 3 4 -13 16 -21 21 -21
13z"/>
<path d="M4754 7299 c-64 -11 -129 -38 -196 -83 -29 -20 -61 -36 -72 -36 -16
0 -18 -5 -13 -45 7 -47 39 -119 58 -131 8 -5 10 -2 5 7 -4 8 1 4 11 -8 26 -32
84 -53 145 -53 140 0 195 58 217 225 10 83 4 105 -34 121 -38 15 -46 16 -121
3z m-24 -69 c0 -11 -4 -20 -10 -20 -5 0 -14 9 -20 20 -9 17 -8 20 10 20 13 0
20 -7 20 -20z m-52 -13 c4 -19 -6 -21 -27 -8 -16 10 -5 34 12 28 7 -2 13 -11
15 -20z m98 -111 c54 -55 -70 -161 -127 -110 -19 17 -20 17 -13 0 6 -16 4 -17
-14 -7 -20 10 -20 12 -4 43 37 74 119 113 158 74z"/>
<path d="M2869 6868 c-5 -21 -5 -68 0 -68 4 0 8 16 8 35 0 28 -4 46 -8 33z"/>
<path d="M3126 6625 c-6 -32 -9 -34 -22 -20 -9 8 -23 14 -32 14 -15 -1 -14 -2
1 -6 10 -3 22 -16 28 -29 16 -43 9 -51 -11 -14 -11 19 -19 29 -20 22 0 -16 29
-62 40 -62 8 0 34 119 27 126 -3 3 -8 -11 -11 -31z"/>
<path d="M6430 6986 c0 -9 5 -16 10 -16 6 0 10 4 10 9 0 6 -4 13 -10 16 -5 3
-10 -1 -10 -9z"/>
<path d="M6409 6955 c-1 -8 -2 -20 -3 -27 -1 -6 8 -12 19 -14 17 -2 18 -1 5 9
-9 7 -14 20 -12 30 2 9 1 17 -2 17 -3 0 -7 -7 -7 -15z"/>
<path d="M6998 6863 c7 -3 16 -2 19 1 4 3 -2 6 -13 5 -11 0 -14 -3 -6 -6z"/>
<path d="M7000 6812 c0 -5 7 -9 15 -9 8 0 12 4 9 9 -3 4 -9 8 -15 8 -5 0 -9
-4 -9 -8z"/>
<path d="M2061 6684 c0 -11 3 -14 6 -6 3 7 2 16 -1 19 -3 4 -6 -2 -5 -13z"/>
<path d="M2427 6496 c-5 -15 -6 -31 -3 -34 8 -8 18 25 14 45 -3 13 -6 10 -11
-11z"/>
<path d="M4290 6259 c0 -5 5 -7 10 -4 6 3 10 8 10 11 0 2 -4 4 -10 4 -5 0 -10
-5 -10 -11z"/>
<path d="M4342 6210 c0 -14 2 -19 5 -12 2 6 2 18 0 25 -3 6 -5 1 -5 -13z"/>
<path d="M4226 6177 c3 -10 9 -15 12 -12 3 3 0 11 -7 18 -10 9 -11 8 -5 -6z"/>
<path d="M4268 6095 c-4 -4 -3 -18 3 -32 5 -13 9 -41 10 -61 l1 -37 10 36 c9
37 -9 109 -24 94z"/>
<path d="M1784 5198 l-19 -23 23 19 c21 18 27 26 19 26 -2 0 -12 -10 -23 -22z"/>
<path d="M1812 5194 c-7 -8 -8 -14 -3 -14 10 0 25 19 20 25 -2 1 -10 -3 -17
-11z"/>
<path d="M1842 5160 c0 -14 2 -19 5 -12 2 6 2 18 0 25 -3 6 -5 1 -5 -13z"/>
<path d="M1860 5025 c0 -8 4 -15 10 -15 5 0 7 7 4 15 -4 8 -8 15 -10 15 -2 0
-4 -7 -4 -15z"/>
<path d="M1855 4989 c-11 -16 -1 -19 13 -3 7 8 8 14 3 14 -5 0 -13 -5 -16 -11z"/>
<path d="M1485 4830 c-3 -5 -1 -10 4 -10 6 0 11 5 11 10 0 6 -2 10 -4 10 -3 0
-8 -4 -11 -10z"/>
<path d="M1901 4764 c0 -11 3 -14 6 -6 3 7 2 16 -1 19 -3 4 -6 -2 -5 -13z"/>
<path d="M2441 2024 c0 -11 3 -14 6 -6 3 7 2 16 -1 19 -3 4 -6 -2 -5 -13z"/>
<path d="M6601 2180 c0 -14 28 -72 29 -59 0 4 -7 22 -15 40 -8 19 -14 27 -14
19z"/>
<path d="M6908 1957 c-3 -19 -2 -25 4 -19 6 6 8 18 6 28 -3 14 -5 12 -10 -9z"/>
<path d="M2172 13473 c-81 -92 -205 -252 -249 -321 -19 -31 -57 -88 -83 -127
-53 -80 -68 -105 -53 -90 6 6 41 55 78 110 38 55 87 123 110 150 53 63 266
345 261 345 -2 0 -31 -30 -64 -67z"/>
<path d="M3406 13328 c-4 -13 -11 -61 -16 -108 -5 -47 -16 -137 -24 -200 -8
-63 -17 -205 -21 -315 -5 -166 -10 -215 -30 -290 -33 -120 -102 -325 -117
-342 -6 -8 -35 -26 -62 -40 -57 -28 -149 -93 -185 -130 -12 -13 -25 -23 -27
-21 -2 3 8 57 22 122 13 66 22 121 20 123 -5 5 -8 -7 -50 -176 -15 -58 -33
-114 -41 -125 -37 -52 -47 -70 -22 -41 14 17 27 28 30 25 2 -3 -4 -39 -14 -80
-37 -155 -61 -361 -66 -570 -3 -113 -8 -220 -13 -237 -5 -18 -5 -35 -1 -38 5
-2 14 -46 21 -97 7 -51 17 -101 22 -110 22 -43 -17 -10 -103 87 -103 117 -144
174 -226 319 -64 112 -83 116 -29 6 104 -211 317 -456 458 -527 l43 -23 -29
23 c-93 70 -94 71 -111 211 -9 70 -13 131 -9 135 4 3 9 0 11 -7 12 -33 106
-161 147 -202 52 -50 58 -48 21 6 -28 42 -26 57 5 29 24 -22 27 -9 4 16 -50
55 -58 186 -17 270 37 75 161 197 236 232 74 34 78 34 40 -5 -44 -47 -65 -94
-73 -165 l-6 -63 36 6 c29 5 39 1 58 -19 23 -24 23 -26 7 -51 -10 -14 -21 -26
-25 -26 -4 0 -19 -9 -32 -20 l-25 -19 17 -54 c37 -111 92 -182 172 -223 60
-30 75 -31 25 0 -59 36 -88 67 -113 121 -24 50 -33 138 -15 149 5 3 12 21 15
41 13 67 37 57 83 -35 62 -122 179 -135 234 -28 11 22 24 58 27 81 7 37 11 42
39 44 29 2 31 0 42 -42 6 -24 11 -62 11 -84 0 -30 4 -41 15 -41 19 0 19 17 1
156 -17 122 -53 217 -108 280 l-33 37 33 -6 c17 -4 47 -10 65 -13 l32 -5 -40
36 -40 37 35 -6 c56 -10 21 13 -46 30 -227 57 -226 57 -366 56 -87 -1 -158 -7
-196 -16 -33 -9 -75 -16 -93 -16 -32 -1 -33 -1 -15 -15 11 -8 30 -15 43 -15
32 0 29 -10 -18 -55 -53 -52 -118 -144 -158 -222 -17 -35 -34 -63 -37 -63 -6
0 -2 91 9 250 1 20 21 67 46 110 25 41 113 210 195 375 l151 299 60 23 c100
38 92 40 100 -19 22 -173 67 -367 117 -496 22 -57 38 -105 36 -107 -2 -3 -20
0 -39 5 -18 6 -52 9 -74 9 l-40 -1 45 -8 c25 -4 72 -17 105 -28 78 -26 150
-38 141 -23 -4 6 -28 16 -53 22 -38 10 -48 18 -60 48 -52 123 -69 610 -22 619
12 2 19 -7 24 -35 4 -21 19 -69 35 -108 15 -38 44 -124 65 -190 40 -129 167
-402 233 -500 45 -66 129 -163 113 -128 -6 12 -16 25 -21 28 -6 4 -7 11 -4 17
4 6 2 8 -4 4 -25 -15 -181 270 -267 488 -57 146 -111 317 -124 394 -6 31 -19
107 -30 167 -18 102 -38 287 -60 560 -9 101 -9 97 -4 -55 2 -91 9 -210 14
-265 6 -70 5 -133 -3 -210 -15 -135 -15 -518 -1 -600 6 -33 9 -62 8 -64 -15
-15 -105 373 -119 515 -33 328 -31 748 4 1053 19 166 21 209 6 159z m-42
-1133 l8 -70 -62 -18 c-34 -10 -64 -16 -66 -14 -2 2 10 35 26 73 16 39 40 111
52 160 l23 89 6 -75 c3 -41 9 -106 13 -145z m173 -70 c-13 -13 -15 -9 -13 28
5 86 8 93 18 40 8 -43 7 -56 -5 -68z m-427 -252 c-125 -256 -268 -519 -276
-511 -4 4 31 233 49 323 8 39 18 91 21 117 6 40 14 53 54 87 26 22 73 55 105
73 32 18 74 45 94 61 20 15 37 27 38 27 2 0 -37 -80 -85 -177z m534 -824 c-10
-16 -24 -9 -24 12 0 18 2 19 15 9 8 -7 12 -16 9 -21z m-294 -33 c0 -8 -5 -18
-11 -22 -14 -8 -33 11 -25 25 10 16 36 13 36 -3z m189 -14 c13 -24 3 -62 -15
-62 -18 0 -39 44 -31 64 9 22 34 20 46 -2z"/>
<path d="M1750 12889 c-12 -16 -20 -32 -17 -35 2 -3 14 11 25 31 26 43 21 46
-8 4z"/>
<path d="M3801 12904 c0 -11 3 -14 6 -6 3 7 2 16 -1 19 -3 4 -6 -2 -5 -13z"/>
<path d="M6681 12875 c1 -19 18 -51 18 -35 0 8 -4 22 -9 30 -5 8 -9 11 -9 5z"/>
<path d="M6700 12811 c0 -6 4 -13 10 -16 6 -3 7 1 4 9 -7 18 -14 21 -14 7z"/>
<path d="M1647 12718 c-246 -414 -376 -831 -394 -1263 -7 -175 8 -299 61 -510
36 -143 104 -292 153 -336 l27 -24 -23 35 c-40 62 -89 174 -117 266 -48 158
-45 403 7 679 26 136 93 372 153 536 65 180 214 514 216 484 0 -6 -9 -44 -20
-84 -100 -361 -130 -1012 -64 -1421 27 -170 103 -424 121 -406 2 2 -3 26 -12
53 -45 130 -85 343 -105 552 -13 135 -13 536 0 676 25 268 93 644 135 747 14
34 23 63 21 66 -8 8 -60 -83 -132 -233 -202 -420 -349 -900 -369 -1212 -4 -57
-11 -103 -16 -103 -5 0 -9 74 -9 164 0 419 97 773 351 1274 42 83 76 152 74
152 -1 0 -27 -42 -58 -92z"/>
<path d="M6740 12675 c0 -11 12 -67 25 -125 58 -245 96 -441 119 -622 52 -397
171 -923 337 -1483 69 -232 195 -570 268 -715 86 -172 231 -419 282 -480 l21
-25 -15 26 c-8 14 -45 73 -80 131 -79 128 -188 342 -255 504 -185 443 -435
1380 -521 1949 -53 348 -94 568 -132 715 -32 119 -48 162 -49 125z"/>
<path d="M6228 12520 c111 -215 128 -249 180 -365 189 -418 309 -794 402
-1255 41 -200 57 -368 60 -605 0 -59 2 -67 13 -50 16 27 15 255 -1 370 -54
375 -142 732 -264 1079 -118 337 -348 828 -439 936 -11 14 11 -36 49 -110z"/>
<path d="M4020 12628 c0 -3 10 -37 21 -74 41 -132 146 -343 241 -482 45 -66
140 -182 150 -182 5 0 -18 34 -51 74 -104 132 -242 379 -316 566 -34 89 -45
111 -45 98z"/>
<path d="M3711 12476 c-2 -70 21 -318 35 -380 l14 -61 -6 75 c-15 176 -42 402
-43 366z"/>
<path d="M3890 12509 c-1 -26 72 -167 132 -256 78 -115 251 -303 346 -375 31
-24 60 -47 64 -53 4 -5 8 -36 8 -68 0 -32 9 -169 20 -305 10 -136 21 -298 24
-361 6 -113 6 -115 47 -177 22 -35 47 -68 55 -75 8 -6 -4 16 -27 51 -39 57
-42 69 -50 153 -24 289 -40 518 -42 639 l-3 137 -99 87 c-182 159 -325 338
-442 550 -18 33 -32 56 -33 53z"/>
<path d="M3415 12121 c-4 -7 2 -10 17 -7 13 2 29 -2 37 -8 11 -9 13 -8 9 4 -5
18 -53 26 -63 11z"/>
<path d="M4093 12092 c26 -50 47 -113 61 -187 35 -181 154 -547 236 -722 27
-56 51 -103 54 -103 2 0 -19 57 -48 128 -73 176 -246 727 -246 783 0 30 -30
97 -46 103 -8 3 -13 2 -11 -2z"/>
<path d="M3762 12005 c0 -16 2 -22 5 -12 2 9 2 23 0 30 -3 6 -5 -1 -5 -18z"/>
<path d="M3771 11944 c0 -11 3 -14 6 -6 3 7 2 16 -1 19 -3 4 -6 -2 -5 -13z"/>
<path d="M4809 11917 c-24 -33 -54 -83 -43 -72 20 20 66 86 63 90 -2 2 -11 -7
-20 -18z"/>
<path d="M2062 11833 c-22 -131 -23 -140 -7 -88 15 54 30 155 23 155 -3 0 -10
-30 -16 -67z"/>
<path d="M3785 11860 c25 -154 144 -577 180 -640 21 -37 18 -20 -10 55 -14 37
-24 72 -22 78 2 6 23 -18 47 -53 91 -134 337 -352 478 -424 53 -27 36 -10 -35
35 -160 100 -335 261 -412 379 -20 30 -48 71 -63 91 -15 19 -35 64 -44 100
-26 106 -115 414 -121 419 -3 3 -2 -15 2 -40z"/>
<path d="M5270 11830 c-8 -5 -10 -10 -5 -10 6 0 17 5 25 10 8 5 11 10 5 10 -5
0 -17 -5 -25 -10z"/>
<path d="M4508 11804 c12 -22 63 -61 61 -47 0 5 -17 21 -36 38 -29 24 -34 26
-25 9z"/>
<path d="M2032 11670 c0 -14 2 -19 5 -12 2 6 2 18 0 25 -3 6 -5 1 -5 -13z"/>
<path d="M3660 11676 c0 -2 8 -10 18 -17 15 -13 16 -12 3 4 -13 16 -21 21 -21
13z"/>
<path d="M5060 11220 c-14 -11 -35 -20 -46 -20 -33 0 -34 -18 -4 -108 28 -86
68 -152 110 -183 29 -22 183 -43 236 -33 38 7 145 96 131 110 -4 4 -30 -14
-57 -41 l-49 -48 -86 1 c-168 2 -235 62 -259 225 -4 32 0 43 26 73 35 40 34
51 -2 24z"/>
<path d="M4500 10856 c0 -3 9 -10 20 -16 11 -6 20 -8 20 -6 0 3 -9 10 -20 16
-11 6 -20 8 -20 6z"/>
<path d="M4615 10800 c10 -11 20 -20 23 -20 3 0 -3 9 -13 20 -10 11 -20 20
-23 20 -3 0 3 -9 13 -20z"/>
<path d="M3750 10754 c0 -42 -29 -91 -63 -107 -30 -14 -100 -36 -177 -56 l-35
-9 45 0 c27 0 80 13 130 31 91 35 111 56 124 130 6 29 4 37 -9 37 -10 0 -15
-9 -15 -26z"/>
<path d="M5695 10769 c-4 -6 -5 -12 -2 -15 2 -3 7 2 10 11 7 17 1 20 -8 4z"/>
<path d="M5661 10689 c-12 -29 -20 -54 -18 -56 2 -2 14 20 26 48 12 29 20 54
18 56 -2 2 -14 -20 -26 -48z"/>
<path d="M6832 10610 c0 -14 2 -19 5 -12 2 6 2 18 0 25 -3 6 -5 1 -5 -13z"/>
<path d="M3070 10504 c51 -23 166 -45 219 -42 l46 3 -60 8 c-33 4 -89 14 -125
22 -117 26 -117 26 -80 9z"/>
<path d="M2280 10487 c0 -13 20 -47 38 -65 9 -10 28 -31 41 -47 l23 -30 -17
30 c-10 17 -28 41 -40 55 -12 14 -27 34 -33 45 -6 11 -12 16 -12 12z"/>
<path d="M4425 10081 c-112 -27 -249 -87 -280 -121 -15 -16 -15 -26 -5 -75 7
-32 18 -71 26 -89 12 -24 14 -26 9 -6 -3 14 -8 52 -11 85 -5 53 -3 63 17 84
29 30 151 86 248 113 47 13 126 23 210 28 l136 7 -120 1 c-99 1 -139 -4 -230
-27z"/>
<path d="M4925 10054 c28 -14 61 -36 74 -48 l24 -21 -17 27 c-17 26 -57 50
-106 62 -14 4 -2 -5 25 -20z"/>
<path d="M6985 9317 c4 -36 4 -37 20 -37 8 0 15 5 15 11 0 5 -4 8 -9 4 -5 -3
-12 -1 -16 5 -3 5 -1 10 4 10 16 0 13 17 -3 23 -9 4 -12 -2 -11 -16z"/>
<path d="M7799 9202 c6 -12 16 -24 22 -28 8 -4 8 -1 0 14 -6 12 -16 24 -22 28
-8 4 -8 1 0 -14z"/>
<path d="M7840 9141 c5 -11 15 -23 21 -27 6 -3 3 5 -6 20 -20 30 -30 35 -15 7z"/>
<path d="M7890 9073 c0 -6 8 -17 18 -24 16 -13 16 -13 2 6 -8 11 -16 22 -17
24 -2 2 -3 0 -3 -6z"/>
<path d="M6668 8383 c7 -3 16 -2 19 1 4 3 -2 6 -13 5 -11 0 -14 -3 -6 -6z"/>
<path d="M8521 7404 c-52 -7 -97 -16 -100 -20 -3 -4 10 -4 29 -1 19 4 76 9
127 13 81 6 94 5 120 -13 36 -26 81 -49 113 -57 14 -4 -2 8 -35 26 -33 18 -71
41 -85 51 -28 20 -41 20 -169 1z"/>
<path d="M1090 7334 c-71 -32 -246 -147 -232 -152 6 -2 50 22 98 52 48 31 94
56 100 56 7 0 43 -7 80 -15 36 -9 68 -14 71 -11 4 4 -40 19 -89 30 -39 9 -35
21 12 40 22 9 40 18 40 21 0 11 -27 4 -80 -21z"/>
<path d="M12 6198 c-7 -7 -12 -16 -12 -21 0 -5 7 -1 16 8 9 9 14 18 12 20 -2
3 -10 -1 -16 -7z"/>
<path d="M45 6190 c-27 -29 -15 -32 18 -4 16 14 22 24 14 24 -8 0 -22 -9 -32
-20z"/>
<path d="M197 6123 c-4 -3 -7 -11 -7 -17 0 -6 5 -5 12 2 6 6 9 14 7 17 -3 3
-9 2 -12 -2z"/>
<path d="M230 6109 c0 -11 4 -18 10 -14 5 3 7 12 3 20 -7 21 -13 19 -13 -6z"/>
<path d="M268 6083 c7 -3 16 -2 19 1 4 3 -2 6 -13 5 -11 0 -14 -3 -6 -6z"/>
<path d="M423 6025 c16 -9 31 -14 35 -11 8 9 0 14 -33 21 l-30 6 28 -16z"/>
<path d="M1058 5952 c-80 -62 -201 -154 -440 -334 -371 -280 -610 -469 -616
-485 -8 -26 16 -11 148 95 74 59 182 144 240 188 58 44 148 113 200 153 195
150 396 299 425 314 33 17 155 137 140 137 -6 0 -49 -31 -97 -68z"/>
<path d="M138 5983 c7 -3 16 -2 19 1 4 3 -2 6 -13 5 -11 0 -14 -3 -6 -6z"/>
<path d="M99 5944 c-21 -24 -22 -26 -3 -16 25 13 50 42 37 42 -5 0 -20 -12
-34 -26z"/>
<path d="M8210 5857 c0 -31 174 -457 271 -666 48 -101 215 -519 333 -831 66
-174 85 -217 86 -188 0 20 -4 47 -10 60 -5 13 -67 169 -138 348 -207 520 -273
680 -441 1064 -83 192 -101 230 -101 213z"/>
<path d="M1229 5113 c-13 -16 -12 -17 4 -4 16 13 21 21 13 21 -2 0 -10 -8 -17
-17z"/>
<path d="M1176 5065 c-11 -8 -15 -15 -9 -15 6 0 16 7 23 15 16 19 11 19 -14 0z"/>
<path d="M1060 4965 c-13 -14 -21 -25 -18 -25 10 0 51 40 46 45 -2 3 -15 -6
-28 -20z"/>
<path d="M1207 4924 c6 -15 23 -19 23 -5 0 5 -7 11 -14 14 -10 4 -13 1 -9 -9z"/>
<path d="M975 4890 c-3 -5 -1 -10 4 -10 6 0 11 5 11 10 0 6 -2 10 -4 10 -3 0
-8 -4 -11 -10z"/>
<path d="M940 4860 c-9 -6 -10 -10 -3 -10 6 0 15 5 18 10 8 12 4 12 -15 0z"/>
<path d="M1150 4851 c-8 -6 -18 -7 -24 -4 -5 3 -6 1 -2 -5 9 -16 18 -15 42 3
21 16 8 20 -16 6z"/>
<path d="M909 4823 c-13 -16 -12 -17 4 -4 16 13 21 21 13 21 -2 0 -10 -8 -17
-17z"/>
<path d="M851 4773 c-19 -18 -30 -33 -24 -33 11 0 69 58 62 63 -2 1 -19 -12
-38 -30z"/>
<path d="M1050 4781 c0 -6 6 -11 13 -11 8 0 7 -4 -3 -10 -13 -8 -12 -10 3 -10
21 0 22 13 2 30 -10 9 -15 9 -15 1z"/>
<path d="M1599 4783 c-1 -5 -1 -11 0 -15 0 -5 -3 -8 -9 -8 -5 0 -10 -6 -10
-13 0 -8 7 -14 16 -14 11 0 14 7 11 23 -2 13 -1 21 4 19 4 -3 10 -1 14 5 3 5
-1 10 -9 10 -9 0 -17 -3 -17 -7z"/>
<path d="M1627 4763 c-4 -3 -7 -11 -7 -17 0 -6 5 -5 12 2 6 6 9 14 7 17 -3 3
-9 2 -12 -2z"/>
<path d="M1430 4731 c0 -8 -7 -11 -15 -7 -8 3 -15 1 -15 -4 0 -6 6 -10 14 -10
17 0 31 18 22 27 -3 4 -6 1 -6 -6z"/>
<path d="M1585 4709 c-4 -6 -5 -12 -2 -15 2 -3 7 2 10 11 7 17 1 20 -8 4z"/>
<path d="M7370 4689 c0 -5 5 -7 10 -4 6 3 10 8 10 11 0 2 -4 4 -10 4 -5 0 -10
-5 -10 -11z"/>
<path d="M7401 4674 c0 -11 3 -14 6 -6 3 7 2 16 -1 19 -3 4 -6 -2 -5 -13z"/>
<path d="M1350 4639 c0 -5 -3 -8 -8 -5 -4 2 -15 -9 -24 -25 -17 -30 -14 -36
11 -20 7 5 10 14 7 20 -4 6 -3 11 3 11 5 0 11 -6 14 -12 2 -7 4 -1 4 15 0 15
-1 27 -3 27 -2 0 -4 -5 -4 -11z"/>
<path d="M7417 4626 c-3 -8 0 -22 8 -32 11 -16 12 -15 10 10 -4 34 -11 42 -18
22z"/>
<path d="M259 4127 c-9 -7 -14 -18 -12 -24 3 -8 -4 -13 -16 -13 -11 0 -25 -9
-31 -21 -7 -11 -17 -18 -24 -16 -6 3 -12 -3 -12 -14 0 -18 1 -18 21 1 26 24
43 26 24 3 -11 -13 -8 -13 12 2 15 11 25 23 22 28 -2 4 3 7 12 7 9 0 15 6 12
13 -2 6 0 20 5 30 10 20 9 21 -13 4z"/>
<path d="M286 4123 c-10 -24 1 -27 23 -6 19 18 19 19 1 20 -10 1 -21 -5 -24
-14z"/>
<path d="M107 3963 c5 -12 2 -15 -8 -11 -10 4 -15 -1 -16 -14 -2 -19 -1 -19
18 -3 20 19 26 45 9 45 -5 0 -6 -8 -3 -17z"/>
<path d="M2960 716 c0 -9 5 -16 10 -16 6 0 10 4 10 9 0 6 -4 13 -10 16 -5 3
-10 -1 -10 -9z"/>
<path d="M2338 623 c12 -2 32 -2 45 0 12 2 2 4 -23 4 -25 0 -35 -2 -22 -4z"/>
<path d="M0 352 c0 -23 108 -254 149 -320 29 -45 48 -40 20 6 -46 75 -84 149
-126 242 -25 55 -43 85 -43 72z"/>
</g>
</svg>
